<svg width="704" height="585" viewBox="0 0 704 585" fill="none" xmlns="http://www.w3.org/2000/svg">
<path d="M103.074 530.518C240.354 602.23 462.913 602.23 600.177 530.518C737.441 458.806 737.457 342.529 600.177 270.817C462.896 199.105 240.338 199.105 103.074 270.817C-34.1905 342.529 -34.2069 458.806 103.074 530.518Z" fill="#F0F0F0"/>
<path d="M629.259 390.075C629.259 390.075 630.996 381.425 644.938 374.74C658.521 368.186 666.352 369.71 675.674 365.958C684.997 362.206 678.312 344.659 652.737 352.425C629.324 359.585 626.932 379.852 626.932 379.852L629.259 390.075Z" fill="#1E959B"/>
<path opacity="0.2" d="M629.259 390.075C629.259 390.075 630.996 381.425 644.938 374.74C658.521 368.186 666.352 369.71 675.674 365.958C684.997 362.206 678.312 344.659 652.737 352.425C629.324 359.585 626.932 379.852 626.932 379.852L629.259 390.075Z" fill="black"/>
<path d="M626.915 386.831C626.817 386.847 626.718 386.847 626.62 386.831C626.4 386.75 626.22 386.587 626.116 386.377C626.013 386.166 625.994 385.925 626.063 385.701C629.34 376.313 637.531 367.678 648.23 362.386C661.927 355.685 671.675 357.832 672.085 357.914C672.315 357.972 672.514 358.117 672.639 358.319C672.764 358.52 672.806 358.763 672.757 358.995C672.702 359.223 672.56 359.42 672.36 359.543C672.16 359.666 671.92 359.704 671.692 359.65C671.594 359.65 662.091 357.586 649.017 363.992C638.777 369.005 630.83 377.329 627.718 386.274C627.657 386.438 627.548 386.58 627.404 386.679C627.26 386.779 627.09 386.832 626.915 386.831V386.831Z" fill="#FAFAFA"/>
<path d="M627.326 379.213C627.326 379.213 628.964 374.298 635.272 364.697C646.151 348.002 663.894 340.727 671.644 331.192C680.016 320.903 665.549 314.546 652.573 318.085C645.135 320.149 638.352 326.932 634.797 331.519C627.263 341.459 622.946 353.464 622.427 365.925L627.326 379.213Z" fill="#F05670"/>
<path d="M624.868 379.688C624.632 379.679 624.409 379.578 624.246 379.407C624.084 379.235 623.995 379.006 624 378.77C624.748 367.953 627.822 357.424 633.011 347.903C642.841 330.241 657.439 323.966 658.045 323.72C658.153 323.672 658.268 323.647 658.386 323.645C658.503 323.643 658.62 323.665 658.729 323.709C658.837 323.753 658.936 323.819 659.019 323.903C659.101 323.987 659.166 324.086 659.209 324.196C659.254 324.303 659.278 324.419 659.279 324.535C659.28 324.652 659.258 324.768 659.213 324.876C659.169 324.984 659.104 325.083 659.022 325.165C658.939 325.248 658.841 325.314 658.734 325.359C648.48 330.518 640.048 338.687 634.567 348.771C629.513 358.039 626.518 368.288 625.786 378.819C625.784 378.937 625.758 379.053 625.711 379.161C625.663 379.268 625.595 379.365 625.509 379.446C625.424 379.527 625.323 379.59 625.213 379.632C625.103 379.673 624.986 379.692 624.868 379.688V379.688Z" fill="#FAFAFA"/>
<path d="M148.474 394.073C136.694 386.143 136.17 364.844 137.874 351.475C140.593 330.176 129.682 325.261 124.127 334.665C120.008 342.715 118.054 351.698 118.459 360.732C119.065 378.852 126.913 400.528 145.918 408.392L148.474 394.073Z" fill="#1E959B"/>
<path opacity="0.2" d="M148.474 394.073C136.694 386.143 136.17 364.844 137.874 351.475C140.593 330.176 129.682 325.261 124.127 334.665C120.008 342.715 118.054 351.698 118.459 360.732C119.065 378.852 126.913 400.528 145.918 408.392L148.474 394.073Z" fill="black"/>
<path d="M146.048 407.131C145.851 407.13 145.659 407.061 145.507 406.934C125.568 389.879 122.455 359.421 127.993 338.302C128.047 338.085 128.186 337.898 128.378 337.783C128.57 337.668 128.8 337.633 129.017 337.688C129.234 337.742 129.421 337.881 129.536 338.073C129.652 338.265 129.686 338.495 129.631 338.712C124.208 359.339 127.223 389.092 146.622 405.689C146.787 405.832 146.889 406.033 146.908 406.251C146.926 406.468 146.859 406.684 146.72 406.852C146.635 406.945 146.531 407.019 146.415 407.067C146.299 407.115 146.174 407.137 146.048 407.131V407.131Z" fill="#FAFAFA"/>
<path d="M166.168 433.296C155.912 440.669 132.352 447.042 124.684 434.41C117.541 422.679 122.325 417.535 107.842 419.566C93.3584 421.598 90.0652 410.358 93.5058 400.921C96.9465 391.484 82.6761 377.673 93.0799 366.958C103.484 356.242 109.464 378.525 115.509 380.949C121.555 383.374 125.209 378.164 132.172 381.949C139.135 385.733 139.774 401.2 146.54 401.511C157.632 402.003 176.277 401.937 177.67 411.817C179.062 421.696 166.168 433.296 166.168 433.296Z" fill="#F05670"/>
<path d="M170.509 429.053H170.411C116.754 423.449 95.9952 376.624 94.7173 369.808C94.679 369.596 94.7264 369.376 94.8492 369.198C94.9719 369.02 95.1601 368.898 95.3727 368.858C95.5874 368.82 95.8088 368.866 95.9895 368.989C96.1701 369.111 96.2957 369.3 96.3393 369.514C97.5845 376.215 117.917 421.942 170.591 427.431C170.806 427.455 171.002 427.564 171.137 427.733C171.272 427.901 171.335 428.117 171.312 428.332C171.292 428.53 171.198 428.714 171.05 428.847C170.901 428.98 170.709 429.054 170.509 429.053Z" fill="#FAFAFA"/>
<path d="M111.741 408.065C108.361 408.064 104.986 407.796 101.649 407.262C101.541 407.244 101.438 407.204 101.346 407.146C101.253 407.088 101.173 407.012 101.11 406.923C100.983 406.744 100.932 406.521 100.969 406.303C101.006 406.086 101.127 405.892 101.307 405.765C101.487 405.637 101.71 405.587 101.927 405.623C108.052 406.624 114.299 406.624 120.425 405.623C120.529 405.599 120.637 405.597 120.743 405.615C120.848 405.633 120.949 405.673 121.039 405.731C121.129 405.789 121.207 405.864 121.267 405.953C121.328 406.041 121.37 406.141 121.391 406.246C121.415 406.351 121.418 406.461 121.4 406.567C121.382 406.674 121.343 406.776 121.285 406.867C121.227 406.959 121.152 407.038 121.063 407.1C120.974 407.162 120.874 407.206 120.769 407.229C117.795 407.809 114.771 408.089 111.741 408.065V408.065Z" fill="#FAFAFA"/>
<path d="M127.765 412.98H127.568C127.465 412.957 127.367 412.913 127.28 412.852C127.193 412.791 127.12 412.713 127.063 412.623C127.007 412.533 126.969 412.433 126.952 412.328C126.934 412.224 126.938 412.117 126.962 412.013C128.608 404.716 129.001 397.193 128.125 389.764C128.09 389.547 128.143 389.324 128.273 389.146C128.402 388.968 128.596 388.848 128.813 388.814C129.031 388.779 129.253 388.832 129.431 388.961C129.609 389.09 129.729 389.285 129.764 389.502C130.711 397.158 130.312 404.921 128.584 412.439C128.524 412.606 128.412 412.748 128.264 412.846C128.117 412.943 127.941 412.99 127.765 412.98V412.98Z" fill="#FAFAFA"/>
<path d="M27.3477 348.87L53.054 334.026C54.2895 333.396 55.6566 333.067 57.0435 333.067C58.4303 333.067 59.7975 333.396 61.033 334.026L64.3097 335.894C65.4685 336.654 66.4324 337.675 67.124 338.876C67.8155 340.077 68.2153 341.424 68.291 342.808V372.544C68.2165 373.928 67.8173 375.275 67.1257 376.477C66.434 377.678 65.4694 378.699 64.3097 379.458L38.587 394.302C37.3515 394.932 35.9844 395.261 34.5975 395.261C33.2107 395.261 31.8436 394.932 30.6081 394.302L27.3313 392.434C26.1686 391.677 25.2007 390.656 24.5062 389.455C23.8116 388.254 23.4099 386.906 23.3336 385.52V355.784C23.4078 354.396 23.8104 353.045 24.5082 351.843C25.2061 350.641 26.1792 349.622 27.3477 348.87V348.87Z" fill="#1E959B"/>
<path opacity="0.5" d="M27.3477 348.87L53.054 334.026C54.2895 333.396 55.6566 333.067 57.0435 333.067C58.4303 333.067 59.7975 333.396 61.033 334.026L64.3097 335.894C65.4685 336.654 66.4324 337.675 67.124 338.876C67.8155 340.077 68.2153 341.424 68.291 342.808V372.544C68.2165 373.928 67.8173 375.275 67.1257 376.477C66.434 377.678 65.4694 378.699 64.3097 379.458L38.587 394.302C37.3515 394.932 35.9844 395.261 34.5975 395.261C33.2107 395.261 31.8436 394.932 30.6081 394.302L27.3313 392.434C26.1686 391.677 25.2007 390.656 24.5062 389.455C23.8116 388.254 23.4099 386.906 23.3336 385.52V355.784C23.4078 354.396 23.8104 353.045 24.5082 351.843C25.2061 350.641 26.1792 349.622 27.3477 348.87V348.87Z" fill="#FAFAFA"/>
<path d="M68.2748 342.808C68.2748 340.268 66.4889 339.236 64.2935 340.514L38.5708 355.341C37.3998 356.094 36.4231 357.113 35.7199 358.314C35.0167 359.515 34.607 360.866 34.5239 362.255V391.943C34.5239 394.499 36.3098 395.531 38.5052 394.253L64.228 379.409C65.3933 378.662 66.3668 377.652 67.0697 376.459C67.7727 375.267 68.1855 373.926 68.2748 372.544V342.808Z" fill="#1E959B"/>
<path d="M23.3496 385.471C23.4259 386.857 23.8276 388.205 24.5222 389.406C25.2167 390.607 26.1846 391.628 27.3473 392.385L30.6241 394.253C31.7512 394.816 32.9841 395.137 34.2429 395.193C35.5017 395.25 36.7583 395.041 37.9313 394.581C36.0471 395.285 34.6545 394.22 34.6545 391.943V362.255C34.7026 360.867 35.1029 359.514 35.8178 358.323L24.5948 351.852C23.8742 353.041 23.4682 354.394 23.4151 355.784L23.3496 385.471Z" fill="#1E959B"/>
<path opacity="0.1" d="M23.3496 385.471C23.4259 386.857 23.8276 388.205 24.5222 389.406C25.2167 390.607 26.1846 391.628 27.3473 392.385L30.6241 394.253C31.7512 394.816 32.9841 395.137 34.2429 395.193C35.5017 395.25 36.7583 395.041 37.9313 394.581C36.0471 395.285 34.6545 394.22 34.6545 391.943V362.255C34.7026 360.867 35.1029 359.514 35.8178 358.323L24.5948 351.852C23.8742 353.041 23.4682 354.394 23.4151 355.784L23.3496 385.471Z" fill="black"/>
<path d="M40.5528 364.352L62.3761 351.622C62.9659 351.278 63.441 351.622 63.441 352.228V367.072C63.4204 367.44 63.3132 367.798 63.1282 368.117C62.9431 368.436 62.6854 368.707 62.3761 368.907L40.52 381.588C39.9302 381.932 39.4551 381.588 39.4551 380.982V366.138C39.4856 365.776 39.6008 365.425 39.7914 365.115C39.9821 364.805 40.2429 364.543 40.5528 364.352V364.352Z" fill="#FAFAFA"/>
<path d="M39.4871 364.909L52.5451 369.153L63.4731 351L52.9055 370.677L39.4871 364.909Z" fill="#E0E0E0"/>
<path d="M27.3477 273.93L53.054 259.086C54.2918 258.464 55.658 258.139 57.0435 258.139C58.4289 258.139 59.7952 258.464 61.033 259.086L64.3097 260.97C65.4694 261.729 66.434 262.751 67.1257 263.952C67.8173 265.153 68.2165 266.5 68.291 267.884V297.572C68.2153 298.956 67.8155 300.302 67.124 301.503C66.4324 302.704 65.4685 303.726 64.3097 304.486L38.587 319.33C37.3492 319.952 35.983 320.276 34.5975 320.276C33.2121 320.276 31.8458 319.952 30.6081 319.33L27.3313 317.445C26.1659 316.691 25.1959 315.671 24.501 314.469C23.8061 313.267 23.406 311.918 23.3336 310.531V280.795C23.4193 279.416 23.8271 278.077 24.5242 276.885C25.2213 275.693 26.1884 274.68 27.3477 273.93V273.93Z" fill="#F05670"/>
<path opacity="0.5" d="M27.3477 273.93L53.054 259.086C54.2918 258.464 55.658 258.139 57.0435 258.139C58.4289 258.139 59.7952 258.464 61.033 259.086L64.3097 260.97C65.4694 261.729 66.434 262.751 67.1257 263.952C67.8173 265.153 68.2165 266.5 68.291 267.884V297.572C68.2153 298.956 67.8155 300.302 67.124 301.503C66.4324 302.704 65.4685 303.726 64.3097 304.486L38.587 319.33C37.3492 319.952 35.983 320.276 34.5975 320.276C33.2121 320.276 31.8458 319.952 30.6081 319.33L27.3313 317.445C26.1659 316.691 25.1959 315.671 24.501 314.469C23.8061 313.267 23.406 311.918 23.3336 310.531V280.795C23.4193 279.416 23.8271 278.077 24.5242 276.885C25.2213 275.693 26.1884 274.68 27.3477 273.93V273.93Z" fill="#FAFAFA"/>
<path d="M68.2748 267.884C68.2748 265.328 66.4889 264.296 64.2935 265.574L38.5708 280.418C37.3977 281.172 36.4196 282.193 35.7163 283.398C35.013 284.602 34.6045 285.956 34.5239 287.348V317.036C34.5239 319.575 36.3098 320.607 38.5052 319.346L64.228 304.502C65.3867 303.742 66.3507 302.72 67.0422 301.519C67.7337 300.318 68.1335 298.972 68.2092 297.588L68.2748 267.884Z" fill="#F05670"/>
<path d="M23.3496 310.531C23.422 311.918 23.8221 313.267 24.517 314.469C25.2119 315.671 26.1819 316.691 27.3473 317.445L30.6241 319.33C31.7511 319.894 32.9849 320.214 34.2443 320.268C35.5038 320.321 36.7603 320.108 37.9313 319.641C36.0471 320.362 34.6545 319.297 34.6545 317.019V287.348C34.7026 285.96 35.1029 284.607 35.8178 283.416L24.5948 276.863C23.8742 278.052 23.4682 279.405 23.4151 280.795L23.3496 310.531Z" fill="#F05670"/>
<path opacity="0.1" d="M23.3496 310.531C23.422 311.918 23.8221 313.267 24.517 314.469C25.2119 315.671 26.1819 316.691 27.3473 317.445L30.6241 319.33C31.7511 319.894 32.9849 320.214 34.2443 320.268C35.5038 320.321 36.7603 320.108 37.9313 319.641C36.0471 320.362 34.6545 319.297 34.6545 317.019V287.348C34.7026 285.96 35.1029 284.607 35.8178 283.416L24.5948 276.863C23.8742 278.052 23.4682 279.405 23.4151 280.795L23.3496 310.531Z" fill="black"/>
<path d="M51.1859 303.847L48.4498 303.634C44.8453 303.339 40.5527 301.914 40.5527 296.769C40.6566 294.882 41.2031 293.046 42.1481 291.409C43.093 289.773 44.4099 288.382 45.9922 287.348C48.3351 285.988 50.3503 286.545 51.1203 288.512C51.8952 285.595 53.7219 283.068 56.2485 281.417C59.2795 279.681 61.7207 281.09 61.7207 284.579C61.7207 289.626 57.4445 296.048 53.8728 300.505L51.1859 303.847Z" fill="#FAFAFA"/>
<path d="M27.3477 199.023L53.054 184.13C54.2918 183.508 55.658 183.183 57.0435 183.183C58.4289 183.183 59.7952 183.508 61.033 184.13L64.3097 186.014C65.4712 186.771 66.4373 187.792 67.1291 188.994C67.821 190.195 68.2191 191.543 68.291 192.928V222.616C68.2153 223.999 67.8155 225.346 67.124 226.547C66.4324 227.748 65.4685 228.77 64.3097 229.53L38.587 244.374C37.3492 244.996 35.983 245.32 34.5975 245.32C33.2121 245.32 31.8458 244.996 30.6081 244.374L27.3313 242.489C26.1668 241.734 25.1975 240.714 24.5027 239.512C23.8079 238.31 23.4073 236.961 23.3336 235.575V205.937C23.4117 204.55 23.816 203.201 24.5134 202C25.2109 200.798 26.1819 199.778 27.3477 199.023Z" fill="#1E959B"/>
<path opacity="0.5" d="M27.3477 199.023L53.054 184.13C54.2918 183.508 55.658 183.183 57.0435 183.183C58.4289 183.183 59.7952 183.508 61.033 184.13L64.3097 186.014C65.4712 186.771 66.4373 187.792 67.1291 188.994C67.821 190.195 68.2191 191.543 68.291 192.928V222.616C68.2153 223.999 67.8155 225.346 67.124 226.547C66.4324 227.748 65.4685 228.77 64.3097 229.53L38.587 244.374C37.3492 244.996 35.983 245.32 34.5975 245.32C33.2121 245.32 31.8458 244.996 30.6081 244.374L27.3313 242.489C26.1668 241.734 25.1975 240.714 24.5027 239.512C23.8079 238.31 23.4073 236.961 23.3336 235.575V205.937C23.4117 204.55 23.816 203.201 24.5134 202C25.2109 200.798 26.1819 199.778 27.3477 199.023Z" fill="#FAFAFA"/>
<path d="M38.5708 244.423C36.3753 245.684 34.5895 244.652 34.5895 242.112V212.425C34.6652 211.041 35.065 209.694 35.7565 208.494C36.4481 207.293 37.412 206.271 38.5708 205.511L64.2935 190.683C66.4889 189.405 68.2748 190.438 68.2748 192.994V222.681C68.199 224.065 67.7993 225.411 67.1077 226.612C66.4162 227.813 65.4522 228.835 64.2935 229.595" fill="#1E959B"/>
<path d="M23.3496 235.624C23.4233 237.011 23.8239 238.36 24.5187 239.561C25.2135 240.763 26.1828 241.783 27.3473 242.538L30.6241 244.423C31.7511 244.987 32.9849 245.307 34.2443 245.361C35.5038 245.414 36.7603 245.201 37.9313 244.734C36.0471 245.455 34.6545 244.39 34.6545 242.112V212.425C34.7026 211.037 35.1029 209.684 35.8178 208.493L24.5948 201.939C23.8742 203.129 23.4682 204.482 23.4151 205.871L23.3496 235.624Z" fill="#1E959B"/>
<path opacity="0.1" d="M23.3496 235.624C23.4233 237.011 23.8239 238.36 24.5187 239.561C25.2135 240.763 26.1828 241.783 27.3473 242.538L30.6241 244.423C31.7511 244.987 32.9849 245.307 34.2443 245.361C35.5038 245.414 36.7603 245.201 37.9313 244.734C36.0471 245.455 34.6545 244.39 34.6545 242.112V212.425C34.7026 211.037 35.1029 209.684 35.8178 208.493L24.5948 201.939C23.8742 203.129 23.4682 204.482 23.4151 205.871L23.3496 235.624Z" fill="black"/>
<path d="M46.7462 217.16C46.7462 217.16 49.7445 210.246 50.023 209.246C50.1713 207.529 50.1713 205.802 50.023 204.085C50.023 203.43 52.7591 201.579 53.6274 203.479C54.495 205.496 54.6622 207.746 54.1026 209.869L60.738 205.986C62.147 205.167 62.7369 206.33 62.7369 207.231C62.6993 208.281 62.3261 209.292 61.6719 210.115C61.6719 210.115 62.999 209.705 63.0154 211.491C62.9755 212.119 62.8099 212.732 62.5284 213.295C62.247 213.858 61.8555 214.359 61.377 214.768C61.377 214.768 61.8194 215.095 61.8194 216.406C61.6294 217.694 60.9628 218.863 59.9516 219.683C60.1699 220.201 60.276 220.759 60.2629 221.321C60.1691 222.091 59.9022 222.831 59.4823 223.483C59.0624 224.136 58.5003 224.685 57.8381 225.089L46.7954 231.512L46.7462 217.16Z" fill="#FAFAFA"/>
<path d="M40.4218 237.181L45.2223 234.379L45.1568 217.668L40.3398 220.469L40.4218 237.181Z" fill="#FAFAFA"/>
<path d="M13.225 111.353L52.6774 88.5954C54.574 87.6339 56.6704 87.1328 58.7968 87.1328C60.9232 87.1328 63.0196 87.6339 64.9162 88.5954L69.8313 91.4625C71.6091 92.6272 73.0884 94.1933 74.1499 96.0346C75.2114 97.8759 75.8254 99.9408 75.9425 102.063V147.577C75.828 149.7 75.2151 151.766 74.1533 153.608C73.0916 155.449 71.6109 157.015 69.8313 158.178L30.4773 180.935C28.5807 181.896 26.4843 182.397 24.3579 182.397C22.2315 182.397 20.1351 181.896 18.2385 180.935L13.3233 178.051C11.5437 176.889 10.0631 175.323 9.00133 173.481C7.93959 171.64 7.32665 169.574 7.21216 167.451V121.871C7.32565 119.771 7.92841 117.726 8.97238 115.899C10.0163 114.073 11.4726 112.516 13.225 111.353V111.353Z" fill="#1E959B"/>
<path opacity="0.1" d="M13.225 111.353L52.6774 88.5954C54.574 87.6339 56.6704 87.1328 58.7968 87.1328C60.9232 87.1328 63.0196 87.6339 64.9162 88.5954L69.8313 91.4625C71.6091 92.6272 73.0884 94.1933 74.1499 96.0346C75.2114 97.8759 75.8254 99.9408 75.9425 102.063V147.577C75.828 149.7 75.2151 151.766 74.1533 153.608C73.0916 155.449 71.6109 157.015 69.8313 158.178L30.4773 180.935C28.5807 181.896 26.4843 182.397 24.3579 182.397C22.2315 182.397 20.1351 181.896 18.2385 180.935L13.3233 178.051C11.5437 176.889 10.0631 175.323 9.00133 173.481C7.93959 171.64 7.32665 169.574 7.21216 167.451V121.871C7.32565 119.771 7.92841 117.726 8.97238 115.899C10.0163 114.073 11.4726 112.516 13.225 111.353V111.353Z" fill="black"/>
<path d="M76.0076 101.784C76.0076 99.5071 74.8935 93.8547 69.0608 97.4264C63.2282 100.998 34.5236 117.267 30.5259 119.627C27.7753 121.132 25.6069 123.514 24.3656 126.393L27.4785 129.539L76.0076 101.784Z" fill="#1E959B"/>
<path opacity="0.2" d="M76.0076 101.784C76.0076 99.5071 74.8935 93.8547 69.0608 97.4264C63.2282 100.998 34.5236 117.267 30.5259 119.627C27.7753 121.132 25.6069 123.514 24.3656 126.393L27.4785 129.539L76.0076 101.784Z" fill="black"/>
<path d="M30.4768 180.935C27.1017 182.885 24.3656 181.295 24.3656 177.396V131.882C24.4827 129.759 25.0967 127.695 26.1582 125.853C27.2197 124.012 28.699 122.446 30.4768 121.281L69.8964 98.5404C73.2715 96.5743 76.0076 98.1636 76.0076 102.063V147.577C75.8931 149.7 75.2801 151.766 74.2184 153.608C73.1567 155.449 71.676 157.015 69.8964 158.178" fill="#1E959B"/>
<path opacity="0.1" d="M30.4768 180.935C27.1017 182.885 24.3656 181.295 24.3656 177.396V131.882C24.4827 129.759 25.0967 127.695 26.1582 125.853C27.2197 124.012 28.699 122.446 30.4768 121.281L69.8964 98.5404C73.2715 96.5743 76.0076 98.1636 76.0076 102.063V147.577C75.8931 149.7 75.2801 151.766 74.2184 153.608C73.1567 155.449 71.676 157.015 69.8964 158.178" fill="black"/>
<path d="M7.14648 167.451C7.25731 169.571 7.86525 171.635 8.92117 173.476C9.97709 175.318 11.4514 176.885 13.2249 178.051L18.1401 180.935C19.8657 181.8 21.7544 182.291 23.6827 182.375C25.6111 182.46 27.5355 182.137 29.3303 181.427C26.4631 182.508 24.2677 180.886 24.2677 177.396V131.882C24.3438 129.753 24.9582 127.679 26.0535 125.852L8.93233 115.924C7.84565 117.724 7.23137 119.77 7.14648 121.871V167.451Z" fill="#1E959B"/>
<path opacity="0.2" d="M7.14648 167.451C7.25731 169.571 7.86525 171.635 8.92117 173.476C9.97709 175.318 11.4514 176.885 13.2249 178.051L18.1401 180.935C19.8657 181.8 21.7544 182.291 23.6827 182.375C25.6111 182.46 27.5355 182.137 29.3303 181.427C26.4631 182.508 24.2677 180.886 24.2677 177.396V131.882C24.3438 129.753 24.9582 127.679 26.0535 125.852L8.93233 115.924C7.84565 117.724 7.23137 119.77 7.14648 121.871V167.451Z" fill="black"/>
<path d="M51.3659 115.973L56.4777 124.984L67.9464 120.298C69.0278 119.856 69.4537 121.15 68.6673 122.477L60.4754 136.567L62.3759 148.61C62.5233 149.724 61.3929 151.362 60.4262 151.362L50.1863 151.051L39.9463 163.175C38.9797 164.322 37.8492 164.027 38.0458 162.683L39.9955 148.397L31.7216 143.858C30.9352 143.432 31.3612 141.646 32.4425 140.844L43.9112 132.308L49.023 117.382C49.4818 115.924 50.9072 115.121 51.3659 115.973Z" fill="#FAFAFA"/>
<path d="M605.503 323.884C585.842 333.24 554.074 333.24 534.446 323.884C514.818 314.529 514.785 299.309 534.446 290.019C554.106 280.729 585.891 280.664 605.503 290.019C625.114 299.374 625.13 314.546 605.503 323.884Z" fill="#E0E0E0"/>
<path d="M158.632 432.493C158.803 434.877 159.535 437.186 160.768 439.233C162 441.28 163.699 443.007 165.726 444.273L364.495 559.042C366.694 560.158 369.124 560.739 371.589 560.739C374.055 560.739 376.485 560.158 378.684 559.042L650.656 402.019C652.799 400.885 654.593 399.188 655.844 397.111C657.095 395.034 657.756 392.656 657.756 390.231C657.756 387.806 657.095 385.427 655.844 383.35C654.593 381.273 652.799 379.577 650.656 378.443L451.871 263.756C449.672 262.64 447.242 262.059 444.776 262.059C442.311 262.059 439.881 262.64 437.682 263.756L165.71 420.779C163.694 422.039 162.003 423.756 160.773 425.791C159.543 427.826 158.81 430.122 158.632 432.493V432.493Z" fill="#37474F"/>
<path d="M240.633 377.46L165.709 420.713C163.57 421.848 161.781 423.545 160.533 425.62C159.285 427.695 158.625 430.071 158.625 432.493C158.625 434.915 159.285 437.291 160.533 439.366C161.781 441.441 163.57 443.138 165.709 444.273L364.495 559.042C366.682 560.182 369.124 560.746 371.589 560.681V377.46H240.633Z" fill="#263238"/>
<path d="M151.964 420.975C149.989 419.629 148.359 417.838 147.203 415.747C146.048 413.655 145.4 411.321 145.312 408.933V171.727C145.455 169.259 146.18 166.859 147.427 164.723C148.674 162.588 150.408 160.777 152.488 159.439L424.46 2.39986C426.571 1.28075 428.916 0.675256 431.304 0.632554C433.693 0.589852 436.057 1.11115 438.207 2.15411C440.182 3.49555 441.813 5.28328 442.969 7.37255C444.124 9.46181 444.772 11.7939 444.858 14.1799V251.402C444.724 253.863 444.012 256.259 442.779 258.393C441.547 260.528 439.829 262.343 437.764 263.69L165.792 420.713C163.671 421.844 161.312 422.458 158.909 422.503C156.506 422.549 154.126 422.025 151.964 420.975Z" fill="#455A64"/>
<path d="M178.588 182.737L147.458 164.715C146.184 166.833 145.468 169.24 145.378 171.711V408.933C145.466 411.321 146.113 413.655 147.269 415.747C148.424 417.838 150.055 419.629 152.029 420.975C154.181 422.012 156.546 422.528 158.934 422.483C161.321 422.437 163.665 421.831 165.775 420.713L196.725 402.806L178.588 182.737Z" fill="#263238"/>
<path d="M158.614 179.411V416.617C158.614 421.139 161.793 422.974 165.708 420.713L437.681 263.69C439.745 262.343 441.463 260.528 442.696 258.393C443.928 256.259 444.641 253.864 444.775 251.402V14.1799C444.775 9.65799 441.597 7.82299 437.681 10.084L165.708 167.123C163.644 168.471 161.926 170.285 160.694 172.42C159.461 174.555 158.749 176.95 158.614 179.411V179.411Z" fill="#37474F"/>
<path d="M165.709 428.905L364.495 543.674C366.693 544.79 369.124 545.371 371.589 545.371C374.054 545.371 376.485 544.79 378.683 543.674L650.656 386.635C654.572 384.374 654.572 380.72 650.656 378.443L451.87 263.756C449.672 262.64 447.241 262.059 444.776 262.059C442.311 262.059 439.88 262.64 437.682 263.756L165.709 420.779C161.794 422.974 161.794 426.611 165.709 428.905Z" fill="#455A64"/>
<path d="M169.526 180.28L433.88 27.6637C436.24 26.3039 438.14 27.4016 438.14 30.1213V235.46C438.061 236.938 437.634 238.376 436.894 239.658C436.154 240.939 435.121 242.027 433.88 242.833L169.526 395.482C167.183 396.842 165.283 395.744 165.283 393.024V187.652C165.364 186.177 165.79 184.741 166.527 183.461C167.264 182.18 168.291 181.091 169.526 180.28V180.28Z" fill="#FAFAFA"/>
<path d="M188.794 422.761L441.253 276.945C442.352 276.387 443.568 276.097 444.8 276.097C446.033 276.097 447.248 276.387 448.347 276.945L461.258 284.399C461.686 284.544 462.057 284.82 462.321 285.187C462.584 285.555 462.725 285.995 462.725 286.447C462.725 286.899 462.584 287.34 462.321 287.707C462.057 288.074 461.686 288.35 461.258 288.495L208.766 434.295C207.666 434.852 206.451 435.143 205.219 435.143C203.986 435.143 202.771 434.852 201.672 434.295L188.794 426.857C188.366 426.712 187.994 426.436 187.731 426.069C187.468 425.702 187.326 425.261 187.326 424.809C187.326 424.357 187.468 423.917 187.731 423.549C187.994 423.182 188.366 422.906 188.794 422.761Z" fill="#263238"/>
<path d="M222.069 441.979L474.529 296.163C475.628 295.606 476.843 295.315 478.076 295.315C479.308 295.315 480.523 295.606 481.623 296.163L561.052 342.038C561.48 342.183 561.852 342.459 562.115 342.826C562.378 343.193 562.52 343.634 562.52 344.086C562.52 344.538 562.378 344.978 562.115 345.345C561.852 345.713 561.48 345.988 561.052 346.134L308.871 491.721C307.773 492.282 306.557 492.574 305.324 492.574C304.091 492.574 302.875 492.282 301.777 491.721L222.069 446.043C221.645 445.898 221.277 445.624 221.016 445.26C220.756 444.896 220.615 444.459 220.615 444.011C220.615 443.563 220.756 443.126 221.016 442.762C221.277 442.397 221.645 442.124 222.069 441.979V441.979Z" fill="#263238"/>
<path d="M448.38 361.797L456.277 357.242C456.622 357.045 456.589 356.718 456.277 356.505L447.086 351.245C446.893 351.149 446.68 351.099 446.463 351.099C446.247 351.099 446.034 351.149 445.841 351.245L437.927 355.817C437.6 356.013 437.616 356.341 437.927 356.537L447.07 361.813C447.272 361.92 447.498 361.974 447.727 361.971C447.956 361.968 448.181 361.908 448.38 361.797V361.797ZM432.783 343.66L424.87 348.231C424.542 348.427 424.558 348.755 424.87 348.952L434.012 354.227C434.207 354.328 434.423 354.38 434.642 354.38C434.862 354.38 435.078 354.328 435.273 354.227L443.17 349.656C443.514 349.476 443.498 349.148 443.17 348.935L434.045 343.66C433.849 343.559 433.633 343.507 433.414 343.507C433.194 343.507 432.978 343.559 432.783 343.66V343.66ZM407.24 358.405L393.855 366.138C393.527 366.319 393.544 366.646 393.855 366.859L402.997 372.135C403.193 372.232 403.409 372.282 403.628 372.282C403.847 372.282 404.062 372.232 404.259 372.135L417.628 364.402C417.972 364.205 417.956 363.894 417.628 363.681L408.486 358.405C408.293 358.307 408.079 358.256 407.863 358.256C407.647 358.256 407.433 358.307 407.24 358.405V358.405ZM421.216 350.328L413.319 354.899C412.991 355.096 413.008 355.423 413.319 355.62L422.461 360.896C422.656 360.996 422.872 361.049 423.092 361.049C423.311 361.049 423.528 360.996 423.723 360.896L431.62 356.324C431.964 356.144 431.931 355.817 431.62 355.604L422.477 350.328C422.278 350.222 422.056 350.166 421.83 350.166C421.605 350.166 421.382 350.222 421.183 350.328H421.216ZM390.218 368.236L382.304 372.807C381.977 373.003 381.993 373.315 382.304 373.528L391.446 378.803C391.641 378.904 391.858 378.956 392.077 378.956C392.297 378.956 392.513 378.904 392.708 378.803L400.605 374.232C400.949 374.035 400.933 373.724 400.605 373.511L391.463 368.236C391.27 368.138 391.057 368.087 390.84 368.087C390.624 368.087 390.411 368.138 390.218 368.236V368.236ZM378.749 374.904L370.835 379.475C370.508 379.672 370.524 379.983 370.835 380.196L379.978 385.471C380.173 385.572 380.389 385.624 380.608 385.624C380.828 385.624 381.044 385.572 381.239 385.471L389.136 380.9C389.48 380.704 389.448 380.392 389.136 380.179L379.994 374.904C379.791 374.792 379.563 374.733 379.331 374.733C379.098 374.733 378.87 374.792 378.667 374.904H378.749ZM414.63 396.367L422.527 391.796C422.871 391.615 422.854 391.288 422.527 391.075L413.384 385.799C413.189 385.699 412.973 385.646 412.754 385.646C412.534 385.646 412.318 385.699 412.123 385.799L404.209 390.37C403.882 390.567 403.898 390.894 404.209 391.091L413.352 396.367C413.549 396.47 413.768 396.524 413.991 396.524C414.213 396.524 414.432 396.47 414.63 396.367V396.367ZM403.079 403.035L410.976 398.464C411.32 398.284 411.304 397.956 410.976 397.743L401.834 392.467C401.638 392.371 401.422 392.32 401.203 392.32C400.984 392.32 400.768 392.371 400.572 392.467L392.659 397.038C392.331 397.235 392.347 397.563 392.659 397.759L401.801 403.035C401.996 403.136 402.212 403.188 402.432 403.188C402.651 403.188 402.868 403.136 403.063 403.035H403.079ZM391.528 409.703L399.425 405.148C399.769 404.952 399.737 404.624 399.425 404.411L390.283 399.136C390.088 399.035 389.872 398.983 389.652 398.983C389.433 398.983 389.217 399.035 389.022 399.136L381.059 403.674C380.731 403.871 380.748 404.198 381.059 404.411L390.201 409.687C390.402 409.794 390.627 409.852 390.855 409.855C391.083 409.857 391.308 409.806 391.512 409.703H391.528ZM380.06 416.371L387.957 411.817C388.301 411.62 388.268 411.292 387.957 411.079L378.831 405.804C378.635 405.707 378.419 405.657 378.2 405.657C377.981 405.657 377.765 405.707 377.569 405.804L369.656 410.359C369.328 410.555 369.345 410.883 369.656 411.096L378.798 416.371C378.981 416.453 379.179 416.495 379.38 416.495C379.58 416.495 379.778 416.453 379.961 416.371H380.06ZM436.928 368.465L444.825 363.91C445.153 363.714 445.136 363.386 444.825 363.173L435.683 357.897C435.487 357.801 435.271 357.75 435.052 357.75C434.833 357.75 434.617 357.801 434.421 357.897L426.524 362.468C426.197 362.665 426.213 362.993 426.524 363.189L435.666 368.465C435.849 368.55 436.047 368.594 436.248 368.594C436.449 368.594 436.648 368.55 436.83 368.465H436.928ZM426.262 389.764L443.891 379.573C444.235 379.393 444.219 379.065 443.891 378.852L421.56 365.991C421.365 365.89 421.149 365.838 420.929 365.838C420.71 365.838 420.493 365.89 420.298 365.991L411.173 371.267C410.845 371.463 410.861 371.774 411.173 371.987L422.92 378.77C423.28 378.983 423.297 379.311 422.92 379.508L415.629 383.718C415.285 383.915 415.301 384.243 415.629 384.439L424.771 389.715C424.976 389.824 425.205 389.88 425.437 389.877C425.669 389.874 425.896 389.813 426.098 389.698L426.262 389.764ZM367.28 381.572L359.367 386.143C359.039 386.34 359.055 386.667 359.367 386.864L368.509 392.14C368.704 392.24 368.92 392.293 369.14 392.293C369.359 392.293 369.575 392.24 369.771 392.14L377.668 387.569C378.012 387.388 377.979 387.061 377.668 386.848L368.542 381.572C368.327 381.442 368.08 381.373 367.829 381.373C367.578 381.373 367.331 381.442 367.116 381.572H367.28ZM355.713 388.24L347.816 392.811C347.472 393.008 347.505 393.336 347.816 393.532L356.958 398.808C357.15 398.908 357.364 398.961 357.581 398.961C357.798 398.961 358.011 398.908 358.203 398.808L366.117 394.253C366.445 394.057 366.428 393.729 366.117 393.516L356.975 388.24C356.758 388.115 356.512 388.049 356.262 388.049C356.012 388.049 355.766 388.115 355.549 388.24H355.713ZM297.993 463.049C298.189 463.146 298.405 463.196 298.624 463.196C298.842 463.196 299.058 463.146 299.254 463.049L307.151 458.478C307.495 458.298 307.463 457.97 307.151 457.757L298.025 452.482C297.829 452.385 297.613 452.334 297.395 452.334C297.176 452.334 296.96 452.385 296.764 452.482L288.85 457.053C288.523 457.249 288.539 457.577 288.85 457.773L297.993 463.049ZM263.292 441.603L255.395 446.174C255.051 446.37 255.083 446.698 255.395 446.895L264.52 452.17C264.715 452.271 264.932 452.323 265.151 452.323C265.371 452.323 265.587 452.271 265.782 452.17L273.695 447.599C274.023 447.419 274.007 447.091 273.695 446.878L264.553 441.603C264.338 441.472 264.092 441.404 263.84 441.404C263.589 441.404 263.343 441.472 263.128 441.603H263.292ZM281.887 457.249C282.082 457.35 282.299 457.402 282.518 457.402C282.738 457.402 282.954 457.35 283.149 457.249L291.062 452.695C291.39 452.498 291.374 452.17 291.062 451.957L281.92 446.682C281.724 446.585 281.508 446.534 281.289 446.534C281.071 446.534 280.855 446.585 280.659 446.682L272.549 451.187C272.204 451.384 272.221 451.711 272.549 451.908L281.887 457.249ZM318.391 467.08L326.288 462.508C326.632 462.328 326.615 462.001 326.288 461.788L317.145 456.512C316.95 456.411 316.734 456.359 316.515 456.359C316.295 456.359 316.079 456.411 315.884 456.512L307.774 461.018C307.446 461.214 307.463 461.542 307.774 461.738L316.916 467.014C317.11 467.136 317.332 467.207 317.561 467.221C317.79 467.236 318.019 467.193 318.227 467.096L318.391 467.08ZM305.578 473.715C305.774 473.816 305.99 473.868 306.209 473.868C306.429 473.868 306.645 473.816 306.84 473.715L314.737 469.144C315.081 468.964 315.048 468.636 314.737 468.423L305.611 463.147C305.415 463.051 305.199 463 304.98 463C304.762 463 304.546 463.051 304.35 463.147L296.436 467.719C296.109 467.915 296.125 468.243 296.436 468.439L305.578 473.715ZM274.842 434.918L266.945 439.489C266.618 439.686 266.634 439.997 266.945 440.21L276.087 445.486C276.283 445.586 276.499 445.639 276.718 445.639C276.938 445.639 277.154 445.586 277.349 445.486L285.246 440.914C285.59 440.718 285.557 440.407 285.246 440.194L276.104 434.918C275.887 434.79 275.64 434.724 275.389 434.727C275.138 434.73 274.892 434.802 274.678 434.934L274.842 434.918ZM332.612 401.577L324.518 406.148C324.174 406.344 324.191 406.672 324.518 406.885L333.66 412.161C333.857 412.258 334.072 412.308 334.291 412.308C334.51 412.308 334.726 412.258 334.922 412.161L342.835 407.606C343.163 407.409 343.147 407.082 342.835 406.869L333.693 401.593C333.499 401.499 333.286 401.45 333.071 401.45C332.855 401.45 332.642 401.499 332.448 401.593L332.612 401.577ZM286.245 428.25L278.332 432.821C278.004 433.001 278.021 433.329 278.332 433.542L287.474 438.817C287.669 438.918 287.886 438.97 288.105 438.97C288.324 438.97 288.541 438.918 288.736 438.817L296.633 434.246C296.977 434.05 296.944 433.722 296.633 433.525L287.507 428.25C287.312 428.149 287.096 428.097 286.876 428.097C286.657 428.097 286.441 428.149 286.245 428.25V428.25ZM343.999 394.909L336.102 399.463C335.758 399.66 335.79 399.988 336.102 400.184L345.227 405.476C345.424 405.573 345.639 405.623 345.858 405.623C346.077 405.623 346.293 405.573 346.489 405.476L354.402 400.921C354.73 400.725 354.714 400.397 354.402 400.184L345.26 394.909C345.064 394.81 344.847 394.761 344.627 394.764C344.408 394.766 344.192 394.822 343.999 394.925V394.909ZM320.897 408.245L313.05 412.816C312.705 413.013 312.722 413.34 313.05 413.553L322.192 418.829C322.388 418.926 322.604 418.976 322.822 418.976C323.041 418.976 323.257 418.926 323.453 418.829L331.367 414.274C331.694 414.078 331.678 413.75 331.367 413.537L322.224 408.261C322.02 408.154 321.792 408.098 321.561 408.098C321.33 408.098 321.102 408.154 320.897 408.261V408.245ZM309.429 414.913L301.515 419.468C301.188 419.665 301.204 419.992 301.515 420.205L310.657 425.481C310.852 425.581 311.069 425.634 311.288 425.634C311.508 425.634 311.724 425.581 311.919 425.481L319.816 420.926C320.16 420.73 320.144 420.402 319.816 420.205L310.674 414.913C310.468 414.808 310.239 414.755 310.008 414.758C309.777 414.76 309.55 414.819 309.347 414.93L309.429 414.913ZM297.878 421.581L289.965 426.136C289.637 426.333 289.653 426.661 289.965 426.873L299.107 432.149C299.303 432.246 299.519 432.296 299.738 432.296C299.956 432.296 300.172 432.246 300.368 432.149L308.265 427.578C308.609 427.381 308.593 427.054 308.265 426.857L299.058 421.696C298.869 421.584 298.657 421.516 298.438 421.499C298.22 421.482 298 421.516 297.796 421.598L297.878 421.581ZM356.86 429.773L364.773 425.202C365.101 425.006 365.085 424.678 364.773 424.481L355.648 419.14C355.451 419.043 355.236 418.993 355.017 418.993C354.798 418.993 354.582 419.043 354.386 419.14L346.489 423.695C346.145 423.892 346.178 424.219 346.489 424.432L355.615 429.708C355.805 429.802 356.015 429.852 356.227 429.855C356.44 429.858 356.651 429.813 356.844 429.724L356.86 429.773ZM458.325 328.963L450.428 333.535C450.084 333.731 450.117 334.059 450.428 334.255L459.554 339.531C459.749 339.632 459.966 339.684 460.185 339.684C460.404 339.684 460.621 339.632 460.816 339.531L468.729 334.96C469.057 334.78 469.04 334.452 468.729 334.239L459.587 328.963C459.394 328.852 459.177 328.79 458.954 328.781C458.731 328.773 458.51 328.818 458.309 328.914L458.325 328.963ZM444.35 337.041L436.437 341.612C436.109 341.792 436.125 342.12 436.437 342.333L445.579 347.608C445.774 347.709 445.99 347.761 446.21 347.761C446.429 347.761 446.645 347.709 446.84 347.608L454.77 343.054C455.114 342.857 455.098 342.529 454.77 342.333L445.628 337.057C445.434 336.941 445.215 336.874 444.989 336.862C444.763 336.851 444.538 336.895 444.334 336.992L444.35 337.041ZM469.876 322.295L461.979 326.866C461.651 327.063 461.668 327.391 461.979 327.587L471.121 332.863C471.316 332.963 471.533 333.016 471.752 333.016C471.971 333.016 472.188 332.963 472.383 332.863L480.28 328.292C480.624 328.095 480.591 327.784 480.28 327.571L471.138 322.295C470.944 322.184 470.727 322.122 470.505 322.113C470.282 322.105 470.061 322.15 469.86 322.246L469.876 322.295ZM410.091 383.964L417.988 379.393C418.332 379.196 418.3 378.885 417.988 378.672L408.862 373.397C408.667 373.296 408.451 373.243 408.232 373.243C408.012 373.243 407.796 373.296 407.601 373.397L399.687 377.968C399.36 378.164 399.376 378.475 399.687 378.688L408.83 383.964C409.026 384.054 409.242 384.097 409.458 384.089C409.675 384.08 409.886 384.021 410.075 383.915L410.091 383.964ZM482.705 315.66C482.51 315.559 482.293 315.507 482.074 315.507C481.854 315.507 481.638 315.559 481.443 315.66L473.513 320.116C473.186 320.296 473.202 320.624 473.513 320.837L482.655 326.113C482.851 326.213 483.067 326.266 483.286 326.266C483.506 326.266 483.722 326.213 483.917 326.113L491.814 321.541C492.158 321.345 492.125 321.017 491.814 320.821L482.705 315.66ZM368.411 423.089L376.324 418.534C376.652 418.337 376.635 418.01 376.324 417.797L367.116 412.472C366.92 412.375 366.704 412.325 366.486 412.325C366.267 412.325 366.051 412.375 365.855 412.472L357.958 417.027C357.614 417.223 357.646 417.551 357.958 417.764L367.1 423.04C367.298 423.149 367.521 423.206 367.747 423.206C367.973 423.206 368.196 423.149 368.394 423.04L368.411 423.089ZM510.098 341.3L517.996 336.729C518.34 336.549 518.307 336.221 517.996 336.008L508.853 330.733C508.657 330.636 508.441 330.586 508.223 330.586C508.004 330.586 507.788 330.636 507.592 330.733L499.695 335.304C499.367 335.501 499.383 335.828 499.695 336.025L508.837 341.3C509.034 341.391 509.249 341.433 509.465 341.425C509.682 341.416 509.893 341.357 510.082 341.251L510.098 341.3ZM485.523 340.432L493.42 335.861C493.764 335.681 493.731 335.353 493.42 335.14L484.277 329.865C484.082 329.764 483.866 329.711 483.647 329.711C483.427 329.711 483.211 329.764 483.016 329.865L475.119 334.436C474.775 334.632 474.808 334.96 475.119 335.157L484.261 340.432C484.454 340.517 484.663 340.557 484.873 340.548C485.083 340.54 485.289 340.483 485.473 340.383L485.523 340.432ZM495.779 323.196C495.587 323.096 495.373 323.043 495.156 323.043C494.94 323.043 494.726 323.096 494.534 323.196L486.62 327.767C486.293 327.964 486.309 328.292 486.62 328.488L495.763 333.764C495.958 333.864 496.174 333.917 496.393 333.917C496.613 333.917 496.829 333.864 497.024 333.764L504.921 329.193C505.265 328.996 505.232 328.685 504.921 328.472L495.779 323.196ZM498.187 321.754L520.388 334.567C520.583 334.667 520.799 334.72 521.018 334.72C521.238 334.72 521.454 334.667 521.649 334.567L529.546 329.996C529.89 329.799 529.857 329.488 529.546 329.275L507.346 316.463C507.151 316.362 506.935 316.309 506.715 316.309C506.496 316.309 506.279 316.362 506.084 316.463L498.187 321.017C497.794 321.197 497.811 321.525 498.187 321.754ZM471.383 336.5L463.486 341.071C463.142 341.268 463.175 341.595 463.486 341.792L472.612 347.068C472.807 347.168 473.023 347.221 473.243 347.221C473.462 347.221 473.679 347.168 473.874 347.068L481.787 342.513C482.115 342.316 482.098 341.989 481.787 341.776L472.629 336.5C472.432 336.403 472.217 336.353 471.998 336.353C471.779 336.353 471.563 336.403 471.367 336.5H471.383ZM384.434 386.7L376.537 391.271C376.193 391.468 376.226 391.796 376.537 391.992L385.663 397.284C385.859 397.381 386.075 397.431 386.294 397.431C386.512 397.431 386.728 397.381 386.924 397.284L394.838 392.729C395.166 392.533 395.149 392.205 394.838 391.992L385.696 386.717C385.502 386.607 385.286 386.544 385.064 386.532C384.843 386.521 384.621 386.562 384.418 386.651L384.434 386.7ZM497.27 347.969C497.465 348.069 497.681 348.122 497.901 348.122C498.12 348.122 498.336 348.069 498.531 347.969L506.428 343.414C506.756 343.217 506.74 342.89 506.428 342.677L497.286 337.401C497.09 337.304 496.874 337.254 496.656 337.254C496.437 337.254 496.221 337.304 496.025 337.401L488.128 341.972C487.784 342.169 487.816 342.496 488.128 342.693L497.27 347.969ZM395.968 380.065L388.071 384.636C387.727 384.832 387.76 385.16 388.071 385.357L397.263 390.567C397.455 390.667 397.668 390.72 397.885 390.72C398.102 390.72 398.316 390.667 398.508 390.567L406.421 385.996C406.749 385.815 406.733 385.488 406.421 385.275L397.279 379.999C397.078 379.892 396.854 379.834 396.626 379.831C396.398 379.829 396.172 379.88 395.968 379.983V380.065ZM309.38 456.446C309.575 456.547 309.791 456.599 310.01 456.599C310.23 456.599 310.446 456.547 310.641 456.446L318.538 451.875C318.882 451.695 318.866 451.367 318.538 451.154L309.396 445.879C309.201 445.778 308.985 445.726 308.765 445.726C308.546 445.726 308.329 445.778 308.134 445.879L300.221 450.45C299.893 450.646 299.91 450.974 300.221 451.171L309.38 456.446ZM291.996 440.063L284.099 444.634C283.755 444.83 283.788 445.158 284.099 445.355L293.225 450.63C293.42 450.731 293.636 450.783 293.856 450.783C294.075 450.783 294.292 450.731 294.487 450.63L302.4 446.059C302.728 445.879 302.711 445.551 302.4 445.338L293.258 440.063C293.067 439.954 292.852 439.893 292.633 439.885C292.414 439.876 292.195 439.92 291.996 440.013V440.063ZM322.192 449.778L330.089 445.207C330.433 445.01 330.416 444.699 330.089 444.486L320.947 439.211C320.752 439.11 320.535 439.058 320.316 439.058C320.096 439.058 319.88 439.11 319.685 439.211L311.772 443.782C311.444 443.978 311.46 444.29 311.772 444.503L320.914 449.778C321.115 449.874 321.336 449.92 321.559 449.911C321.781 449.902 321.999 449.84 322.192 449.729V449.778ZM333.66 443.11L341.574 438.539C341.902 438.342 341.885 438.015 341.574 437.818L332.432 432.542C332.237 432.442 332.02 432.389 331.801 432.389C331.581 432.389 331.365 432.442 331.17 432.542L323.273 437.113C322.929 437.294 322.945 437.621 323.273 437.834L332.415 443.11C332.628 443.205 332.861 443.244 333.094 443.224C333.326 443.204 333.549 443.125 333.742 442.995L333.66 443.11ZM345.211 436.442L353.124 431.871C353.452 431.674 353.436 431.346 353.124 431.15L343.982 425.874C343.787 425.773 343.571 425.721 343.351 425.721C343.132 425.721 342.916 425.773 342.721 425.874L334.824 430.429C334.48 430.625 334.496 430.953 334.824 431.166L343.966 436.442C344.171 436.549 344.398 436.606 344.629 436.606C344.861 436.606 345.088 436.549 345.293 436.442H345.211ZM303.465 433.394L295.568 437.965C295.224 438.162 295.257 438.473 295.568 438.686L304.71 443.962C304.902 444.062 305.116 444.115 305.333 444.115C305.55 444.115 305.763 444.062 305.955 443.962L313.869 439.391C314.196 439.194 314.18 438.883 313.869 438.67L304.858 433.378C304.659 433.264 304.435 433.201 304.206 433.195C303.977 433.19 303.751 433.241 303.547 433.345L303.465 433.394ZM315.016 426.726L307.119 431.297C306.791 431.494 306.807 431.805 307.119 432.018L316.261 437.294C316.456 437.394 316.672 437.447 316.892 437.447C317.111 437.447 317.327 437.394 317.522 437.294L325.419 432.723C325.763 432.526 325.731 432.215 325.419 432.002L316.326 426.71C316.143 426.599 315.937 426.532 315.724 426.515C315.51 426.498 315.296 426.531 315.097 426.611L315.016 426.726ZM361.235 400.053L353.337 404.608C352.993 404.804 353.01 405.132 353.337 405.345L362.48 410.621C362.676 410.717 362.892 410.768 363.11 410.768C363.329 410.768 363.545 410.717 363.741 410.621L371.655 406.066C371.982 405.869 371.966 405.542 371.655 405.329L362.512 400.053C362.329 399.959 362.126 399.905 361.92 399.897C361.713 399.888 361.507 399.925 361.316 400.004L361.235 400.053ZM349.684 406.721L341.77 411.276C341.443 411.473 341.459 411.8 341.77 412.013L350.913 417.289C351.108 417.389 351.324 417.442 351.543 417.442C351.763 417.442 351.979 417.389 352.174 417.289L360.071 412.734C360.415 412.538 360.399 412.21 360.071 411.997L350.929 406.721C350.75 406.632 350.553 406.581 350.353 406.573C350.152 406.564 349.952 406.598 349.766 406.672L349.684 406.721ZM372.785 393.385L364.888 397.94C364.544 398.136 364.56 398.464 364.888 398.66L374.03 403.952C374.227 404.049 374.442 404.1 374.661 404.1C374.88 404.1 375.096 404.049 375.292 403.952L383.205 399.398C383.533 399.201 383.517 398.873 383.205 398.66L374.063 393.385C373.88 393.287 373.678 393.232 373.471 393.223C373.264 393.215 373.057 393.253 372.867 393.336L372.785 393.385ZM326.665 420.058L318.751 424.629C318.423 424.809 318.44 425.137 318.751 425.35L327.893 430.625C328.089 430.722 328.305 430.773 328.524 430.773C328.743 430.773 328.959 430.722 329.155 430.625L337.052 426.054C337.396 425.858 337.363 425.53 337.052 425.333L327.926 420.058C327.731 419.957 327.515 419.905 327.295 419.905C327.076 419.905 326.86 419.957 326.665 420.058V420.058ZM338.215 413.39L330.302 417.944C329.974 418.141 329.99 418.469 330.302 418.682L339.444 423.957C339.64 424.054 339.856 424.104 340.075 424.104C340.293 424.104 340.509 424.054 340.706 423.957L348.603 419.386C348.947 419.189 348.93 418.862 348.603 418.665L339.46 413.373C339.269 413.274 339.057 413.219 338.841 413.214C338.626 413.208 338.412 413.251 338.215 413.34V413.39ZM329.777 460.477L337.674 455.906C338.019 455.709 338.002 455.398 337.674 455.185L328.532 449.909C328.337 449.809 328.121 449.756 327.902 449.756C327.682 449.756 327.466 449.809 327.271 449.909L319.325 454.464C318.997 454.644 319.013 454.972 319.325 455.185L328.467 460.46C328.671 460.564 328.897 460.616 329.126 460.61C329.355 460.604 329.579 460.542 329.777 460.428V460.477ZM261.981 453.628L252.839 448.353C252.643 448.256 252.427 448.206 252.208 448.206C251.989 448.206 251.773 448.256 251.577 448.353L243.68 452.826C243.336 453.022 243.352 453.35 243.68 453.546L252.806 458.822C253.001 458.923 253.217 458.975 253.437 458.975C253.656 458.975 253.872 458.923 254.068 458.822L261.981 454.267C262.358 454.12 262.341 453.792 261.981 453.579V453.628ZM279.299 458.707L270.157 453.432C269.96 453.335 269.744 453.285 269.526 453.285C269.307 453.285 269.091 453.335 268.895 453.432L256.738 460.46C256.394 460.657 256.41 460.985 256.738 461.181L265.88 466.473C266.076 466.57 266.292 466.621 266.511 466.621C266.73 466.621 266.946 466.57 267.142 466.473L279.315 459.461C279.676 459.199 279.659 458.871 279.299 458.658V458.707ZM247.956 443.421L238.814 438.08C238.618 437.983 238.402 437.933 238.183 437.933C237.965 437.933 237.749 437.983 237.553 438.08L227.853 443.683C227.526 443.88 227.542 444.208 227.853 444.421L236.996 449.696C237.192 449.793 237.408 449.843 237.626 449.843C237.845 449.843 238.061 449.793 238.257 449.696L247.989 444.077C248.333 443.913 248.317 443.585 247.956 443.372V443.421ZM255.411 439.112C255.606 439.213 255.822 439.265 256.042 439.265C256.261 439.265 256.478 439.213 256.673 439.112L264.586 434.541C264.914 434.361 264.897 434.033 264.586 433.82L255.444 428.545C255.248 428.448 255.032 428.397 254.813 428.397C254.594 428.397 254.378 428.448 254.182 428.545L246.285 433.116C245.941 433.312 245.957 433.64 246.285 433.837L255.411 439.112ZM295.388 464.491L286.245 459.215C286.053 459.115 285.84 459.062 285.623 459.062C285.406 459.062 285.192 459.115 285 459.215L269.796 467.981C269.452 468.177 269.468 468.505 269.796 468.718L278.938 473.994C279.134 474.09 279.35 474.141 279.569 474.141C279.788 474.141 280.004 474.09 280.2 473.994L295.404 465.228C295.781 464.982 295.748 464.655 295.388 464.442V464.491ZM302.973 475.19L293.831 469.914C293.635 469.817 293.419 469.767 293.2 469.767C292.982 469.767 292.766 469.817 292.57 469.914L282.854 475.534C282.51 475.73 282.526 476.058 282.854 476.271L291.996 481.547C292.191 481.647 292.408 481.7 292.627 481.7C292.846 481.7 293.063 481.647 293.258 481.547L302.99 475.943C303.367 475.763 303.334 475.353 302.973 475.14V475.19ZM341.312 389.535C341.508 389.631 341.724 389.682 341.942 389.682C342.161 389.682 342.377 389.631 342.573 389.535L350.47 384.98C350.814 384.783 350.798 384.456 350.47 384.243L341.328 378.967C341.133 378.866 340.917 378.814 340.697 378.814C340.478 378.814 340.262 378.866 340.067 378.967L332.169 383.522C331.825 383.718 331.842 384.046 332.169 384.259L341.312 389.535ZM318.21 402.871C318.405 402.972 318.622 403.024 318.841 403.024C319.061 403.024 319.277 402.972 319.472 402.871L327.369 398.316C327.713 398.12 327.697 397.792 327.369 397.579L318.194 392.205C317.998 392.108 317.782 392.058 317.563 392.058C317.345 392.058 317.129 392.108 316.932 392.205L309.019 396.76C308.691 396.957 308.708 397.284 309.019 397.497L318.21 402.871ZM266.978 432.362C267.17 432.463 267.384 432.515 267.601 432.515C267.817 432.515 268.031 432.463 268.223 432.362L276.137 427.791C276.464 427.611 276.448 427.283 276.137 427.07L266.994 421.794C266.799 421.694 266.583 421.641 266.364 421.641C266.144 421.641 265.928 421.694 265.733 421.794L257.836 426.366C257.492 426.562 257.525 426.89 257.836 427.086L266.978 432.362ZM329.761 396.121C329.957 396.218 330.173 396.268 330.392 396.268C330.611 396.268 330.826 396.218 331.023 396.121L338.92 391.566C339.264 391.37 339.247 391.042 338.92 390.829L329.745 385.652C329.549 385.555 329.333 385.504 329.114 385.504C328.895 385.504 328.679 385.555 328.483 385.652L320.57 390.206C320.242 390.403 320.258 390.731 320.57 390.944L329.761 396.121ZM306.66 409.457C306.856 409.554 307.072 409.605 307.291 409.605C307.509 409.605 307.725 409.554 307.921 409.457L315.818 404.886C316.162 404.69 316.13 404.362 315.818 404.149L306.693 398.873C306.496 398.777 306.281 398.726 306.062 398.726C305.843 398.726 305.627 398.777 305.431 398.873L297.518 403.428C297.19 403.625 297.206 403.952 297.518 404.165L306.66 409.457ZM309.33 475.976C309.135 475.875 308.919 475.823 308.7 475.823C308.48 475.823 308.264 475.875 308.069 475.976L295.912 482.988C295.568 483.185 295.584 483.513 295.912 483.726L305.054 489.001C305.25 489.098 305.466 489.148 305.685 489.148C305.904 489.148 306.12 489.098 306.316 489.001L318.473 481.973C318.817 481.776 318.8 481.448 318.473 481.252L309.33 475.976ZM290.112 419.058C290.307 419.159 290.523 419.211 290.743 419.211C290.962 419.211 291.179 419.159 291.374 419.058L299.271 414.487C299.615 414.291 299.582 413.963 299.271 413.766L290.112 408.589C289.917 408.488 289.701 408.436 289.481 408.436C289.262 408.436 289.046 408.488 288.85 408.589L280.937 413.16C280.609 413.34 280.626 413.668 280.937 413.881L290.112 419.058ZM278.643 425.727C278.838 425.827 279.055 425.88 279.274 425.88C279.494 425.88 279.71 425.827 279.905 425.727L287.802 421.156C288.146 420.959 288.113 420.648 287.802 420.435L278.496 415.143C278.304 415.042 278.09 414.99 277.873 414.99C277.656 414.99 277.443 415.042 277.251 415.143L269.337 419.714C269.01 419.91 269.026 420.238 269.337 420.435L278.643 425.727ZM523.468 352.425C523.272 352.328 523.056 352.278 522.837 352.278C522.618 352.278 522.402 352.328 522.206 352.425L502.759 363.648C502.414 363.845 502.431 364.172 502.759 364.385L511.901 369.661C512.096 369.762 512.312 369.814 512.532 369.814C512.751 369.814 512.967 369.762 513.162 369.661L532.594 358.438C532.921 358.241 532.905 357.914 532.594 357.701L523.468 352.425ZM497.942 367.171C497.745 367.074 497.53 367.023 497.311 367.023C497.092 367.023 496.876 367.074 496.68 367.171L488.767 371.725C488.439 371.922 488.455 372.25 488.767 372.463L497.909 377.738C498.105 377.835 498.321 377.885 498.54 377.885C498.758 377.885 498.974 377.835 499.17 377.738L507.067 373.184C507.412 372.987 507.379 372.659 507.067 372.446L497.942 367.171ZM341.443 453.759L349.356 449.188C349.684 448.992 349.667 448.664 349.356 448.467L340.214 443.192C340.019 443.091 339.803 443.039 339.583 443.039C339.364 443.039 339.147 443.091 338.952 443.192L331.055 447.763C330.711 447.943 330.728 448.271 331.055 448.484L340.198 453.759C340.375 453.839 340.568 453.881 340.763 453.881C340.958 453.881 341.15 453.839 341.328 453.759H341.443ZM474.824 380.507C474.628 380.41 474.412 380.36 474.193 380.36C473.974 380.36 473.759 380.41 473.562 380.507L465.665 385.062C465.321 385.258 465.354 385.586 465.665 385.799L474.808 391.075C475.001 391.171 475.214 391.222 475.43 391.222C475.646 391.222 475.859 391.171 476.053 391.075L483.966 386.504C484.294 386.307 484.277 385.979 483.966 385.783L474.824 380.507ZM535.018 345.757C534.823 345.656 534.607 345.604 534.388 345.604C534.168 345.604 533.952 345.656 533.757 345.757L525.86 350.312C525.516 350.508 525.549 350.836 525.86 351.049L535.002 356.324C535.198 356.421 535.414 356.472 535.633 356.472C535.852 356.472 536.067 356.421 536.264 356.324L544.161 351.77C544.505 351.573 544.472 351.245 544.161 351.032L535.018 345.757ZM555.531 344.364L533.413 331.585C533.217 331.488 533.001 331.438 532.782 331.438C532.563 331.438 532.347 331.488 532.151 331.585L524.238 336.156C523.91 336.353 523.926 336.68 524.238 336.877L546.487 349.607C546.683 349.704 546.899 349.754 547.118 349.754C547.337 349.754 547.552 349.704 547.749 349.607L555.646 345.052C555.99 344.905 555.957 344.577 555.531 344.364ZM431.472 405.443C431.277 405.343 431.061 405.29 430.841 405.29C430.622 405.29 430.406 405.343 430.211 405.443L420.495 411.063C420.151 411.26 420.167 411.587 420.495 411.784L429.637 417.06C429.832 417.16 430.049 417.213 430.268 417.213C430.487 417.213 430.704 417.16 430.899 417.06L440.631 411.44C440.958 411.243 440.942 410.916 440.631 410.719L431.472 405.443ZM460.668 388.584C460.473 388.484 460.257 388.431 460.038 388.431C459.818 388.431 459.602 388.484 459.407 388.584L447.234 395.597C446.906 395.793 446.922 396.121 447.234 396.334L456.376 401.61C456.572 401.706 456.788 401.757 457.006 401.757C457.225 401.757 457.441 401.706 457.637 401.61L469.794 394.597C470.138 394.401 470.122 394.073 469.794 393.86L460.668 388.584ZM404.799 420.877C404.603 420.78 404.387 420.73 404.168 420.73C403.95 420.73 403.734 420.78 403.538 420.877L338.494 458.445C338.15 458.625 338.166 458.953 338.494 459.166L347.636 464.442C347.832 464.539 348.048 464.589 348.267 464.589C348.485 464.589 348.701 464.539 348.897 464.442L413.958 426.873C414.302 426.677 414.269 426.349 413.958 426.153L404.799 420.877ZM336.102 460.559C335.907 460.458 335.69 460.406 335.471 460.406C335.251 460.406 335.035 460.458 334.84 460.559L325.108 466.178C324.764 466.375 324.797 466.703 325.108 466.899L334.25 472.175C334.445 472.276 334.662 472.328 334.881 472.328C335.1 472.328 335.317 472.276 335.512 472.175L345.227 466.555C345.572 466.359 345.555 466.047 345.227 465.834L336.102 460.559ZM418.185 413.16C417.99 413.06 417.774 413.007 417.554 413.007C417.335 413.007 417.118 413.06 416.923 413.16L407.191 418.763C406.864 418.96 406.88 419.288 407.191 419.501L416.333 424.776C416.529 424.877 416.745 424.929 416.964 424.929C417.184 424.929 417.4 424.877 417.595 424.776L427.327 419.173C427.655 418.976 427.638 418.649 427.327 418.436L418.185 413.16ZM322.716 468.276C322.52 468.179 322.304 468.128 322.085 468.128C321.866 468.128 321.651 468.179 321.454 468.276L311.739 473.895C311.395 474.092 311.411 474.42 311.739 474.633L320.881 479.908C321.076 480.009 321.292 480.061 321.512 480.061C321.731 480.061 321.948 480.009 322.143 479.908L331.875 474.305C332.202 474.108 332.186 473.781 331.875 473.568L322.716 468.276ZM444.94 397.71C444.744 397.613 444.528 397.563 444.309 397.563C444.09 397.563 443.874 397.613 443.678 397.71L433.946 403.33C433.619 403.51 433.635 403.838 433.946 404.051L443.088 409.326C443.285 409.423 443.5 409.474 443.719 409.474C443.938 409.474 444.154 409.423 444.35 409.326L454.066 403.707C454.41 403.51 454.393 403.182 454.066 402.969L444.94 397.71ZM486.276 373.839C486.08 373.742 485.864 373.692 485.646 373.692C485.427 373.692 485.211 373.742 485.015 373.839L477.118 378.394C476.79 378.59 476.806 378.918 477.118 379.131L486.26 384.406C486.455 384.507 486.671 384.56 486.891 384.56C487.11 384.56 487.326 384.507 487.521 384.406L495.419 379.852C495.763 379.655 495.73 379.327 495.419 379.114L486.276 373.839ZM511.589 355.456L519.503 350.901C519.831 350.705 519.814 350.377 519.503 350.164L510.361 344.889C510.166 344.788 509.949 344.735 509.73 344.735C509.51 344.735 509.294 344.788 509.099 344.889L501.202 349.443C500.858 349.64 500.891 349.968 501.202 350.181L510.328 355.456C510.522 355.55 510.735 355.599 510.95 355.599C511.166 355.599 511.379 355.55 511.573 355.456H511.589ZM459.947 355.128L467.844 350.557C468.189 350.361 468.172 350.049 467.844 349.836L458.702 344.561C458.507 344.46 458.291 344.408 458.071 344.408C457.852 344.408 457.636 344.46 457.441 344.561L449.527 349.132C449.2 349.329 449.216 349.64 449.527 349.853L458.669 355.128C458.865 355.229 459.081 355.282 459.3 355.282C459.52 355.282 459.736 355.229 459.931 355.128H459.947ZM433.733 400.397L456.834 387.061C457.179 386.864 457.162 386.536 456.834 386.323L447.692 381.048C447.497 380.947 447.281 380.895 447.062 380.895C446.842 380.895 446.626 380.947 446.431 381.048L423.329 394.384C422.985 394.581 423.002 394.892 423.329 395.105L432.488 400.397C432.683 400.498 432.899 400.55 433.119 400.55C433.338 400.55 433.555 400.498 433.75 400.397H433.733ZM498.744 362.108C498.941 362.205 499.156 362.255 499.375 362.255C499.594 362.255 499.81 362.205 500.006 362.108L507.919 357.553C508.247 357.357 508.231 357.029 507.919 356.816L498.777 351.54C498.581 351.444 498.365 351.393 498.146 351.393C497.928 351.393 497.712 351.444 497.516 351.54L489.586 356.161C489.242 356.357 489.275 356.685 489.586 356.898L498.744 362.108ZM486.948 354.588L494.861 350.033C495.189 349.836 495.173 349.509 494.861 349.296L485.719 344.02C485.523 343.923 485.307 343.873 485.088 343.873C484.87 343.873 484.654 343.923 484.458 344.02L476.561 348.591C476.217 348.788 476.249 349.116 476.561 349.329L485.686 354.604C485.891 354.691 486.113 354.729 486.335 354.715C486.557 354.701 486.773 354.635 486.964 354.522L486.948 354.588ZM422.183 407.016L430.08 402.445C430.424 402.265 430.407 401.937 430.08 401.724L420.937 396.449C420.742 396.348 420.526 396.296 420.307 396.296C420.087 396.296 419.871 396.348 419.676 396.449L411.762 401.02C411.435 401.216 411.451 401.544 411.762 401.741L420.905 407.016C421.1 407.13 421.32 407.194 421.546 407.203C421.771 407.211 421.996 407.164 422.199 407.065L422.183 407.016ZM473.218 376.804C473.415 376.901 473.63 376.952 473.849 376.952C474.068 376.952 474.284 376.901 474.48 376.804L482.377 372.25C482.721 372.053 482.688 371.725 482.377 371.512L473.235 366.237C473.04 366.136 472.823 366.084 472.604 366.084C472.385 366.084 472.168 366.136 471.973 366.237L464.043 370.906C463.716 371.103 463.732 371.43 464.043 371.643L473.218 376.804ZM364.413 440.357L372.326 435.803C372.654 435.606 372.638 435.278 372.326 435.082L363.151 429.888C362.955 429.791 362.739 429.741 362.521 429.741C362.302 429.741 362.086 429.791 361.89 429.888L354.009 434.377C353.665 434.574 353.698 434.902 354.009 435.115L363.135 440.39C363.333 440.499 363.554 440.557 363.78 440.56C364.006 440.563 364.229 440.51 364.429 440.407L364.413 440.357ZM375.882 433.689L383.795 429.134C384.123 428.938 384.106 428.61 383.795 428.397L374.653 423.122C374.457 423.025 374.241 422.974 374.022 422.974C373.803 422.974 373.588 423.025 373.391 423.122L365.478 427.709C365.134 427.906 365.167 428.233 365.478 428.446L374.62 433.722C374.827 433.841 375.06 433.905 375.298 433.907C375.536 433.91 375.771 433.852 375.98 433.738L375.882 433.689ZM352.78 447.042L360.694 442.471C361.022 442.274 361.005 441.947 360.694 441.75L351.552 436.474C351.357 436.374 351.14 436.321 350.921 436.321C350.701 436.321 350.485 436.374 350.29 436.474L342.393 441.029C342.049 441.226 342.065 441.553 342.393 441.766L351.535 447.042C351.738 447.16 351.966 447.226 352.201 447.235C352.435 447.244 352.668 447.194 352.879 447.091L352.78 447.042ZM398.999 420.353L406.896 415.798C407.24 415.601 407.208 415.274 406.896 415.061L397.771 409.785C397.574 409.688 397.359 409.638 397.14 409.638C396.921 409.638 396.705 409.688 396.509 409.785L388.596 414.356C388.268 414.553 388.284 414.88 388.596 415.077L397.738 420.369C397.944 420.487 398.176 420.552 398.414 420.558C398.651 420.564 398.886 420.51 399.098 420.402L398.999 420.353ZM387.449 427.021L395.346 422.466C395.69 422.27 395.657 421.942 395.346 421.729L386.204 416.453C386.008 416.353 385.792 416.3 385.573 416.3C385.353 416.3 385.137 416.353 384.942 416.453L377.045 421.008C376.717 421.205 376.734 421.532 377.045 421.745L386.187 427.021C386.392 427.142 386.623 427.21 386.861 427.218C387.098 427.227 387.334 427.176 387.547 427.07L387.449 427.021ZM410.55 413.684L418.447 409.13C418.791 408.933 418.775 408.605 418.447 408.392L409.305 403.117C409.109 403.02 408.893 402.97 408.674 402.97C408.455 402.97 408.239 403.02 408.043 403.117L400.13 407.688C399.802 407.885 399.819 408.212 400.13 408.409L409.272 413.684C409.477 413.813 409.712 413.885 409.954 413.894C410.195 413.902 410.435 413.847 410.648 413.734L410.55 413.684ZM463.404 315.021C463.601 315.118 463.816 315.168 464.035 315.168C464.254 315.168 464.47 315.118 464.666 315.021L472.563 310.466C472.907 310.269 472.874 309.942 472.563 309.729L470.122 308.32C469.926 308.223 469.71 308.173 469.491 308.173C469.272 308.173 469.056 308.223 468.86 308.32L460.963 312.874C460.619 313.071 460.636 313.399 460.963 313.612L463.404 315.021ZM406.552 351.704C406.747 351.805 406.964 351.857 407.183 351.857C407.403 351.857 407.619 351.805 407.814 351.704L415.727 347.15C416.055 346.953 416.039 346.625 415.727 346.429L406.585 341.137C406.389 341.04 406.173 340.989 405.954 340.989C405.736 340.989 405.52 341.04 405.324 341.137L397.427 345.691C397.082 345.888 397.115 346.216 397.427 346.429L406.552 351.704ZM429.67 338.368C429.866 338.465 430.082 338.515 430.301 338.515C430.52 338.515 430.735 338.465 430.932 338.368L438.829 333.813C439.173 333.616 439.14 333.289 438.829 333.076L429.686 327.8C429.49 327.703 429.274 327.653 429.056 327.653C428.837 327.653 428.621 327.703 428.425 327.8L420.528 332.355C420.2 332.551 420.217 332.879 420.528 333.092L429.67 338.368ZM392.446 359.847C392.642 359.944 392.858 359.994 393.077 359.994C393.295 359.994 393.511 359.944 393.707 359.847L401.621 355.276C401.948 355.079 401.932 354.752 401.621 354.555L392.479 349.279C392.284 349.179 392.067 349.126 391.848 349.126C391.628 349.126 391.412 349.179 391.217 349.279L383.32 353.851C382.976 354.031 383.009 354.358 383.32 354.571L392.446 359.847ZM418.119 345.102C418.314 345.202 418.531 345.255 418.75 345.255C418.97 345.255 419.186 345.202 419.381 345.102L427.278 340.547C427.606 340.35 427.589 340.023 427.278 339.81L418.136 334.534C417.94 334.437 417.724 334.387 417.505 334.387C417.286 334.387 417.07 334.437 416.874 334.534L408.977 339.089C408.633 339.285 408.666 339.613 408.977 339.826L418.119 345.102ZM369.345 373.249C369.54 373.35 369.756 373.402 369.975 373.402C370.195 373.402 370.411 373.35 370.606 373.249L378.52 368.678C378.847 368.481 378.831 368.17 378.52 367.957L369.426 362.714C369.231 362.614 369.015 362.561 368.796 362.561C368.576 362.561 368.36 362.614 368.165 362.714L360.251 367.285C359.924 367.482 359.94 367.793 360.251 368.006L369.345 373.249ZM380.895 366.581C381.09 366.681 381.306 366.734 381.526 366.734C381.745 366.734 381.962 366.681 382.157 366.581L390.07 362.01C390.398 361.813 390.381 361.502 390.07 361.289L380.928 356.013C380.733 355.913 380.517 355.86 380.297 355.86C380.078 355.86 379.861 355.913 379.666 356.013L371.769 360.584C371.425 360.765 371.442 361.092 371.769 361.305L380.895 366.581ZM440.303 328.423C440.496 328.519 440.71 328.57 440.926 328.57C441.142 328.57 441.355 328.519 441.548 328.423L449.462 323.868C449.789 323.671 449.773 323.344 449.462 323.131L447.037 321.738C446.842 321.638 446.626 321.585 446.406 321.585C446.187 321.585 445.97 321.638 445.775 321.738L437.862 326.309C437.534 326.489 437.551 326.817 437.862 327.03L440.303 328.423ZM474.955 308.402C475.15 308.502 475.366 308.555 475.586 308.555C475.805 308.555 476.022 308.502 476.217 308.402L484.114 303.831C484.458 303.65 484.441 303.323 484.114 303.11L481.672 301.701C481.476 301.604 481.26 301.553 481.042 301.553C480.823 301.553 480.607 301.604 480.411 301.701L472.514 306.255C472.17 306.452 472.186 306.78 472.514 306.993L474.955 308.402ZM494.157 319.494C494.353 319.59 494.569 319.641 494.788 319.641C495.006 319.641 495.222 319.59 495.419 319.494L503.316 314.922C503.66 314.726 503.643 314.398 503.316 314.202L494.173 308.926C493.978 308.825 493.762 308.773 493.543 308.773C493.323 308.773 493.107 308.825 492.912 308.926L485.08 313.563C484.753 313.743 484.769 314.07 485.08 314.283L494.157 319.494ZM523.042 348.804L530.939 344.25C531.283 344.053 531.25 343.725 530.939 343.512L521.797 338.237C521.6 338.14 521.385 338.09 521.166 338.09C520.947 338.09 520.731 338.14 520.535 338.237L512.638 342.808C512.31 343.004 512.327 343.332 512.638 343.529L521.78 348.821C521.992 348.929 522.227 348.983 522.464 348.977C522.702 348.971 522.934 348.906 523.14 348.788L523.042 348.804ZM451.952 321.754C452.148 321.851 452.364 321.902 452.583 321.902C452.802 321.902 453.017 321.851 453.214 321.754L461.111 317.2C461.455 317.003 461.422 316.676 461.111 316.463L458.686 315.053C458.49 314.957 458.274 314.906 458.055 314.906C457.836 314.906 457.62 314.957 457.424 315.053L449.511 319.608C449.183 319.805 449.2 320.132 449.511 320.345L451.952 321.754ZM357.892 379.917C358.087 380.018 358.304 380.07 358.523 380.07C358.742 380.07 358.959 380.018 359.154 379.917L367.051 375.346C367.395 375.166 367.378 374.838 367.051 374.625L357.909 369.35C357.714 369.249 357.497 369.197 357.278 369.197C357.058 369.197 356.842 369.249 356.647 369.35L348.734 373.921C348.406 374.117 348.422 374.445 348.734 374.642L357.892 379.917Z" fill="#E0E0E0"/>
<path d="M404.865 451.711L491.389 401.757L544.636 432.493L458.113 482.447L404.865 451.711Z" fill="#263238"/>
<path d="M231.131 155.474L488.882 6.62681C493.912 3.72687 498.041 6.10253 498.041 11.9188V211.606C497.957 213.082 497.528 214.518 496.788 215.799C496.048 217.079 495.018 218.168 493.781 218.978L229.492 371.594C227.149 372.938 225.249 371.84 225.249 369.137V165.682C225.365 163.639 225.957 161.652 226.978 159.88C228 158.107 229.422 156.599 231.131 155.474Z" fill="#F5F5F5"/>
<path d="M498.039 16.7029V11.9188C498.039 6.10253 493.911 3.72687 488.881 6.62681L231.13 155.474C229.418 156.597 227.992 158.105 226.968 159.877C225.944 161.65 225.349 163.638 225.231 165.682V174.299L498.039 16.7029Z" fill="#263238"/>
<path d="M459.603 27.6146C458.683 28.2101 457.917 29.0148 457.367 29.963C456.818 30.9113 456.5 31.9761 456.441 33.0704C456.441 35.0857 457.85 35.9048 459.603 34.9054C460.519 34.3036 461.282 33.4948 461.828 32.5442C462.374 31.5937 462.69 30.528 462.749 29.4332C462.749 27.418 461.34 26.5988 459.603 27.6146Z" fill="#E0E0E0"/>
<path d="M472.121 20.373C471.204 20.9748 470.442 21.7837 469.896 22.7342C469.349 23.6847 469.034 24.7504 468.975 25.8452C468.975 27.8605 470.384 28.6796 472.121 27.6638C473.037 27.0631 473.798 26.2542 474.342 25.3031C474.886 24.3521 475.197 23.2859 475.25 22.1916C475.25 20.1928 473.874 19.3736 472.121 20.373Z" fill="#E0E0E0"/>
<path d="M484.654 13.1477C483.73 13.7509 482.962 14.5641 482.412 15.5209C481.863 16.4776 481.547 17.5507 481.492 18.6527C481.492 20.6515 482.917 21.4707 484.654 20.4713C485.574 19.8722 486.34 19.0645 486.89 18.1136C487.439 17.1628 487.757 16.0957 487.816 14.9991C487.816 12.9511 486.407 12.0991 484.654 13.1477Z" fill="#E0E0E0"/>
<path d="M225.183 174.251V212.671L498.041 55.1397V16.7031L225.183 174.251Z" fill="#1E959B"/>
<path opacity="0.1" d="M225.183 174.251V212.671L498.041 55.1397V16.7031L225.183 174.251Z" fill="black"/>
<path d="M243.042 192.65C242.124 192.93 241.152 192.986 240.207 192.813V173.972C240.192 173.613 240.28 173.258 240.459 172.947C240.639 172.637 240.904 172.384 241.223 172.219L242.632 171.4C242.993 171.187 243.271 171.138 243.435 171.236C243.599 171.334 243.681 171.58 243.681 171.973V178.166C244.2 177.343 244.829 176.593 245.548 175.938C246.308 175.253 247.137 174.649 248.022 174.136C250.103 172.94 251.692 172.678 252.807 173.333C253.921 173.988 254.445 175.528 254.445 177.904C254.477 180.547 253.798 183.15 252.479 185.441C251.078 187.809 249.07 189.76 246.663 191.093C245.533 191.776 244.315 192.3 243.042 192.65V192.65ZM249.907 184.966C250.665 183.441 251.036 181.753 250.988 180.05C250.988 178.412 250.709 177.429 250.12 177.019C249.53 176.61 248.58 176.774 247.22 177.56C246.253 178.135 245.412 178.898 244.746 179.805C244.071 180.654 243.697 181.702 243.681 182.786V189.242C244.109 189.274 244.54 189.212 244.942 189.061C245.516 188.89 246.067 188.648 246.581 188.341C247.989 187.557 249.144 186.386 249.907 184.966V184.966Z" fill="#FAFAFA"/>
<path d="M257.344 184.13C257.196 184.032 257.114 183.786 257.114 183.409V164.174C257.088 163.814 257.171 163.454 257.352 163.142C257.534 162.829 257.804 162.578 258.13 162.421L259.588 161.569C259.965 161.356 260.227 161.307 260.391 161.405C260.555 161.504 260.637 161.75 260.637 162.143V181.427C260.656 181.788 260.567 182.147 260.38 182.456C260.193 182.766 259.917 183.013 259.588 183.163L258.13 184.015C257.835 184.228 257.573 184.277 257.344 184.13Z" fill="#FAFAFA"/>
<path d="M265.339 178.199C264.045 177.494 263.389 175.889 263.389 173.382C263.388 170.905 264.062 168.475 265.339 166.353C266.674 164.113 268.572 162.26 270.844 160.979C273.236 159.603 275.071 159.341 276.382 159.98C277.693 160.619 278.332 162.274 278.332 164.764C278.335 167.246 277.661 169.682 276.382 171.809C275.039 174.055 273.129 175.908 270.844 177.183C268.468 178.559 266.633 178.903 265.339 178.199ZM273.826 171.187C274.524 169.824 274.873 168.31 274.842 166.779C274.842 165.141 274.498 164.076 273.826 163.601C273.154 163.126 272.188 163.29 270.844 164.043C269.604 164.745 268.583 165.777 267.895 167.025C267.186 168.367 266.831 169.866 266.863 171.383C266.863 173.022 267.207 174.103 267.895 174.66C268.583 175.217 269.533 175.004 270.844 174.267C272.112 173.546 273.147 172.477 273.826 171.187Z" fill="#FAFAFA"/>
<path d="M284.934 173.628C284.204 173.932 283.415 174.072 282.624 174.037C282.329 174.037 282.247 173.824 282.395 173.464L283.198 171.449C283.254 171.251 283.368 171.074 283.525 170.941C283.617 170.92 283.712 170.92 283.804 170.941C285.21 170.824 286.564 170.351 287.736 169.565C288.85 168.969 289.779 168.079 290.423 166.992C291.042 165.783 291.335 164.434 291.275 163.077C290.286 164.897 288.804 166.402 286.999 167.418C284.934 168.614 283.329 168.893 282.198 168.254C281.068 167.615 280.56 166.14 280.56 163.781C280.531 161.195 281.242 158.654 282.608 156.458C284.08 154.134 286.114 152.218 288.522 150.887C289.622 150.242 290.808 149.756 292.045 149.445C292.948 149.176 293.9 149.115 294.83 149.265V160.144C294.858 162.569 294.296 164.964 293.192 167.123C292.023 169.288 290.254 171.069 288.096 172.252C287.087 172.808 286.029 173.268 284.934 173.628ZM290.325 161.52C290.941 160.587 291.272 159.493 291.275 158.374V152.722C290.823 152.751 290.38 152.856 289.964 153.033C289.398 153.259 288.851 153.527 288.326 153.836C286.952 154.565 285.814 155.67 285.045 157.022C284.276 158.375 283.908 159.917 283.984 161.471C283.984 163.109 284.312 164.01 284.951 164.42C285.59 164.83 286.589 164.649 287.867 163.896C288.86 163.306 289.702 162.493 290.325 161.52V161.52Z" fill="#FAFAFA"/>
<path d="M271.763 202.791V337.827C271.763 338.745 272.238 339.187 272.811 338.843C273.144 338.566 273.41 338.217 273.589 337.823C273.767 337.428 273.855 336.998 273.843 336.566V201.53C273.843 200.612 273.385 200.17 272.811 200.514C272.476 200.79 272.208 201.138 272.027 201.533C271.845 201.927 271.755 202.357 271.763 202.791V202.791Z" fill="#1E959B"/>
<path d="M191.907 255.17L251.364 220.764C253.314 219.634 254.903 220.551 254.903 222.812V264.624C254.838 265.854 254.484 267.052 253.869 268.119C253.254 269.187 252.396 270.094 251.364 270.768L191.907 305.174C189.941 306.305 188.352 305.387 188.352 303.126V261.314C188.418 260.083 188.775 258.884 189.393 257.816C190.011 256.749 190.872 255.842 191.907 255.17V255.17Z" fill="#E0E0E0"/>
<path d="M254.903 222.894C254.903 220.633 253.265 219.716 251.364 220.846L191.907 255.252C190.872 255.924 190.011 256.831 189.393 257.898C188.775 258.966 188.418 260.164 188.352 261.396V264.951L254.903 226.531V222.894Z" fill="#1E959B"/>
<path d="M195.004 268.72L221.628 253.352V280.254L195.004 295.622V268.72Z" fill="#FAFAFA"/>
<path d="M195.086 291.706L205.08 273.995C205.158 273.819 205.281 273.666 205.436 273.551C205.591 273.436 205.774 273.364 205.965 273.341C206.157 273.318 206.351 273.345 206.529 273.419C206.707 273.494 206.863 273.613 206.981 273.766L210.487 277.6L216.483 263.723C216.844 262.887 217.565 262.822 218.122 263.559L221.743 268.72V280.189L195.086 295.622V291.706Z" fill="#1E959B"/>
<path d="M228.279 251.828C228.279 253.106 229.246 253.598 230.409 252.909L246.121 243.849C246.73 243.464 247.239 242.942 247.609 242.325C247.979 241.707 248.199 241.012 248.251 240.294C248.251 239.016 247.301 238.524 246.121 239.212L230.409 248.273C229.803 248.66 229.295 249.182 228.925 249.799C228.555 250.416 228.334 251.111 228.279 251.828V251.828Z" fill="#FAFAFA"/>
<path d="M228.279 262.887C228.279 264.165 229.246 264.657 230.409 263.985L246.121 254.908C246.731 254.529 247.242 254.01 247.612 253.395C247.982 252.78 248.201 252.086 248.251 251.369C248.251 250.091 247.301 249.6 246.121 250.272L230.409 259.348C229.802 259.731 229.293 260.25 228.923 260.865C228.554 261.479 228.333 262.172 228.279 262.887V262.887Z" fill="#FAFAFA"/>
<path d="M228.279 273.963C228.279 275.241 229.246 275.732 230.409 275.044L246.121 265.984C246.73 265.599 247.239 265.077 247.609 264.459C247.979 263.842 248.199 263.146 248.251 262.428C248.251 261.15 247.301 260.659 246.121 261.347L230.409 270.407C229.803 270.794 229.295 271.317 228.925 271.934C228.555 272.551 228.334 273.245 228.279 273.963V273.963Z" fill="#FAFAFA"/>
<path d="M191.907 319.92L251.364 285.595C253.314 284.465 254.903 285.382 254.903 287.643V329.471C254.835 330.701 254.48 331.898 253.865 332.965C253.251 334.032 252.394 334.94 251.364 335.615L191.907 369.94C189.941 371.07 188.352 370.153 188.352 367.892V326.064C188.418 324.832 188.775 323.633 189.393 322.566C190.011 321.498 190.872 320.591 191.907 319.92V319.92Z" fill="#E0E0E0"/>
<path d="M254.903 287.643C254.903 285.382 253.265 284.465 251.364 285.595L191.907 319.92C190.872 320.591 190.011 321.498 189.393 322.566C188.775 323.633 188.418 324.832 188.352 326.064V329.635L254.903 291.215V287.643Z" fill="#1E959B"/>
<path d="M195.004 333.469L221.628 318.101V345.003L195.004 360.371V333.469Z" fill="#FAFAFA"/>
<path d="M195.086 356.472L205.08 338.745C205.16 338.569 205.284 338.418 205.44 338.304C205.596 338.191 205.779 338.121 205.97 338.099C206.161 338.078 206.355 338.106 206.532 338.182C206.71 338.258 206.864 338.378 206.981 338.532L210.487 342.365L216.385 328.472C216.415 328.287 216.505 328.116 216.642 327.988C216.779 327.859 216.954 327.779 217.141 327.76C217.328 327.742 217.516 327.785 217.675 327.884C217.835 327.983 217.957 328.132 218.023 328.308L221.644 333.469V344.938L195.086 360.371V356.472Z" fill="#1E959B"/>
<path d="M228.279 316.577C228.279 317.871 229.246 318.347 230.409 317.675L246.121 308.598C246.731 308.219 247.242 307.7 247.612 307.085C247.982 306.47 248.201 305.776 248.251 305.059C248.251 303.781 247.301 303.29 246.121 303.962L230.409 313.038C229.802 313.421 229.293 313.94 228.923 314.554C228.554 315.169 228.333 315.862 228.279 316.577V316.577Z" fill="#FAFAFA"/>
<path d="M228.279 327.653C228.279 328.93 229.246 329.422 230.409 328.734L246.121 319.674C246.73 319.289 247.239 318.767 247.609 318.149C247.979 317.532 248.199 316.836 248.251 316.118C248.251 314.84 247.301 314.349 246.121 315.037L230.409 324.097C229.803 324.484 229.295 325.007 228.925 325.624C228.555 326.241 228.334 326.935 228.279 327.653V327.653Z" fill="#FAFAFA"/>
<path d="M228.279 338.712C228.279 339.99 229.246 340.481 230.409 339.809L246.121 330.733C246.731 330.353 247.242 329.835 247.612 329.22C247.982 328.604 248.201 327.91 248.251 327.194C248.251 325.9 247.301 325.424 246.121 326.096L230.409 335.173C229.802 335.555 229.293 336.074 228.923 336.689C228.554 337.304 228.333 337.996 228.279 338.712V338.712Z" fill="#FAFAFA"/>
<path d="M295.272 256.727L478.067 151.198C480.033 150.068 481.622 150.985 481.622 153.246V206.543C481.558 207.775 481.202 208.975 480.584 210.043C479.966 211.111 479.104 212.017 478.067 212.687L295.272 318.216C293.322 319.346 291.733 318.445 291.733 316.168V262.871C291.801 261.641 292.156 260.445 292.771 259.377C293.386 258.31 294.242 257.402 295.272 256.727V256.727Z" fill="#E0E0E0"/>
<path d="M481.622 153.246C481.622 150.985 479.984 150.068 478.067 151.198L295.272 256.727C294.242 257.402 293.386 258.31 292.771 259.377C292.156 260.445 291.801 261.641 291.733 262.871V266.426L481.622 156.802V153.246Z" fill="#1E959B"/>
<path d="M336.805 245.668L299.892 266.967C299.065 267.504 298.377 268.229 297.884 269.084C297.392 269.938 297.109 270.897 297.058 271.882V308.369C297.058 310.171 298.32 310.908 299.892 310.007L336.805 288.708C337.632 288.171 338.32 287.446 338.813 286.591C339.306 285.737 339.589 284.778 339.64 283.793V247.306C339.64 245.487 338.378 244.75 336.805 245.668Z" fill="#FAFAFA"/>
<path d="M310.067 277.731L297.058 305.584V308.467C297.058 310.269 298.32 311.007 299.892 310.105L336.805 288.806C337.632 288.269 338.32 287.544 338.813 286.69C339.306 285.835 339.589 284.876 339.64 283.891V271.292L332.66 258.185C331.808 256.547 330.547 256.645 329.842 258.3L318.849 284.072L313.507 277.403C313.33 277.082 313.062 276.819 312.738 276.648C312.413 276.477 312.045 276.404 311.68 276.439C311.314 276.474 310.967 276.615 310.68 276.844C310.394 277.074 310.18 277.382 310.067 277.731V277.731Z" fill="#1E959B"/>
<path d="M301.318 277.403C303.175 276.19 304.721 274.556 305.831 272.635C306.941 270.714 307.584 268.559 307.708 266.344C307.752 265.176 307.412 264.025 306.741 263.067L299.942 266.983C299.115 267.52 298.427 268.246 297.934 269.1C297.441 269.954 297.158 270.913 297.108 271.898V277.96C297.803 278.208 298.548 278.287 299.28 278.19C300.012 278.093 300.711 277.824 301.318 277.403Z" fill="#1E959B"/>
<path d="M356.335 237.623L470.449 171.744C472.087 170.842 473.3 171.449 473.3 173.12C473.222 174.067 472.924 174.982 472.429 175.793C471.934 176.604 471.256 177.288 470.449 177.789L356.335 243.669C354.697 244.57 353.501 243.964 353.501 242.293C353.572 241.346 353.866 240.43 354.359 239.618C354.851 238.807 355.528 238.123 356.335 237.623Z" fill="#FAFAFA"/>
<path d="M356.335 252.942L470.449 187.062C472.087 186.161 473.3 186.768 473.3 188.439C473.225 189.386 472.928 190.303 472.433 191.114C471.937 191.926 471.258 192.609 470.449 193.108L356.335 258.988C354.697 259.889 353.501 259.283 353.501 257.611C353.572 256.665 353.866 255.749 354.359 254.937C354.851 254.126 355.528 253.442 356.335 252.942Z" fill="#FAFAFA"/>
<path d="M356.335 268.359L470.449 202.48C472.087 201.579 473.3 202.185 473.3 203.856C473.225 204.804 472.928 205.72 472.433 206.532C471.937 207.343 471.258 208.026 470.449 208.525L356.335 274.405C354.697 275.322 353.501 274.7 353.501 273.029C353.574 272.083 353.868 271.167 354.361 270.356C354.853 269.544 355.529 268.861 356.335 268.359Z" fill="#FAFAFA"/>
<path d="M543.063 88.1694L526.302 87.7106C525.172 86.744 507.592 66.8867 507.592 66.8867C507.592 66.8867 501.251 76.8809 501.153 77.5199C501.055 78.1588 518.405 96.7054 520.109 98.5895C520.596 99.2113 521.217 99.7143 521.927 100.061C522.636 100.407 523.415 100.587 524.205 100.588C528.743 100.85 545.75 102.047 545.75 102.047L543.063 88.1694Z" fill="#F2C6C6"/>
<path d="M566.869 107.42L541.048 105.504L543.047 88.1694L569.704 88.7593L566.869 107.42Z" fill="#1E959B"/>
<path opacity="0.2" d="M566.869 107.42L541.048 105.504L543.047 88.1694L569.704 88.7593L566.869 107.42Z" fill="black"/>
<path d="M328.549 164.469L511.295 58.9078C513.261 57.7773 514.85 58.6948 514.85 60.9558V114.269C514.783 115.501 514.426 116.699 513.808 117.767C513.19 118.835 512.329 119.741 511.295 120.413L328.549 225.941C326.599 227.072 325.01 226.154 325.01 223.893V170.58C325.082 169.356 325.44 168.166 326.055 167.105C326.669 166.044 327.523 165.141 328.549 164.469V164.469Z" fill="#E0E0E0"/>
<path d="M514.899 60.9558C514.899 58.6948 513.261 57.7773 511.344 58.9078L328.549 164.469C327.519 165.145 326.662 166.053 326.048 167.12C325.433 168.187 325.077 169.383 325.01 170.613V174.185L514.899 64.5275V60.9558Z" fill="#F05670"/>
<path d="M370.082 153.377L333.169 174.676C332.343 175.214 331.655 175.94 331.163 176.794C330.67 177.648 330.386 178.607 330.335 179.591V216.078C330.335 217.897 331.596 218.618 333.169 217.717L370.082 196.418C370.909 195.881 371.597 195.155 372.09 194.301C372.582 193.446 372.866 192.487 372.916 191.503V155.016C372.916 153.213 371.655 152.476 370.082 153.377Z" fill="#FAFAFA"/>
<path d="M343.343 185.441L330.335 213.293V216.177C330.335 217.995 331.596 218.716 333.169 217.815L370.082 196.516C370.909 195.979 371.597 195.253 372.09 194.399C372.582 193.545 372.866 192.586 372.916 191.601V179.002L365.937 165.895C365.085 164.256 363.823 164.354 363.119 166.026L352.125 191.863L346.784 185.195C346.613 184.871 346.352 184.605 346.032 184.427C345.713 184.25 345.348 184.169 344.984 184.195C344.619 184.221 344.269 184.353 343.978 184.574C343.687 184.795 343.466 185.096 343.343 185.441V185.441Z" fill="#F05670"/>
<path d="M334.594 185.113C336.454 183.902 338.002 182.269 339.113 180.348C340.223 178.426 340.864 176.27 340.984 174.054C341.032 172.885 340.692 171.733 340.017 170.777L333.169 174.725C332.343 175.263 331.655 175.989 331.163 176.843C330.67 177.697 330.386 178.656 330.335 179.641V185.703C331.039 185.958 331.795 186.038 332.538 185.936C333.28 185.833 333.986 185.55 334.594 185.113V185.113Z" fill="#F05670"/>
<path d="M389.612 145.349L503.725 79.4532C505.364 78.5521 506.56 79.1747 506.56 80.8458C506.491 81.7908 506.198 82.7058 505.705 83.5149C505.212 84.3241 504.534 85.0042 503.725 85.4988L389.612 151.362C387.973 152.263 386.777 151.641 386.777 149.969C386.854 149.031 387.15 148.123 387.643 147.321C388.135 146.518 388.81 145.843 389.612 145.349V145.349Z" fill="#FAFAFA"/>
<path d="M389.612 160.717L503.725 94.8214C505.364 93.9202 506.56 94.5428 506.56 96.214C506.491 97.159 506.198 98.0739 505.705 98.8831C505.212 99.6923 504.534 100.372 503.725 100.867L389.612 166.763C387.973 167.664 386.777 167.041 386.777 165.37C386.849 164.426 387.143 163.512 387.636 162.703C388.128 161.895 388.805 161.214 389.612 160.717V160.717Z" fill="#FAFAFA"/>
<path d="M389.612 176.085L503.725 110.19C505.364 109.288 506.56 109.911 506.56 111.582C506.491 112.527 506.198 113.442 505.705 114.251C505.212 115.06 504.534 115.741 503.725 116.235L389.612 182.131C387.973 183.032 386.777 182.41 386.777 180.739C386.849 179.794 387.143 178.88 387.636 178.072C388.128 177.263 388.805 176.582 389.612 176.085V176.085Z" fill="#FAFAFA"/>
<path d="M599.833 290.691H590.166V304.781H599.833V290.691Z" fill="#FFD2D1"/>
<path d="M565.835 273.237L556.174 273.569L556.659 287.651L566.32 287.319L565.835 273.237Z" fill="#FFD2D1"/>
<path d="M599.21 153.164C599.21 162.405 600.406 222.157 600.406 222.157C600.635 224.827 603.125 229.726 602.585 239.933C601.847 253.794 600.651 292.362 600.651 292.362C600.651 292.362 596.113 296.851 589.707 292.362C589.707 292.362 580.958 240.015 579.221 226.269C577.698 214.276 575.142 181.689 575.142 181.689L566.18 220.011C566.18 220.011 567.818 229.022 568.097 235.395C568.375 241.768 566.458 278.517 566.458 278.517C564.89 279.498 563.092 280.05 561.243 280.119C559.395 280.188 557.561 279.771 555.923 278.911C555.923 278.911 548.158 225.204 547.158 219.47C546.159 213.736 553.892 153.164 553.892 153.164H599.21Z" fill="#455A64"/>
<path d="M584.645 89.1853H584.777C588.919 90.2411 592.589 92.6511 595.204 96.0323C597.82 99.4135 599.23 103.572 599.211 107.846V153.164C592.428 160.553 568.786 163.994 553.958 153.164V106.011C553.958 98.4749 558.153 89.431 569.703 88.7593L584.645 89.1853Z" fill="#1E959B"/>
<path d="M587.906 50.634C588.683 50.5436 589.47 50.6308 590.208 50.8891C590.945 51.1474 591.615 51.57 592.166 52.1249C594.001 54.009 593.624 57.466 592.166 65.445L586.513 66.084L587.906 50.634Z" fill="#263238"/>
<path d="M554.892 48.3238C553.676 48.3285 552.471 48.0831 551.354 47.6029C549.617 46.6035 549.158 48.5859 550.108 50.2899C550.735 51.52 551.667 52.5692 552.814 53.3378C553.961 54.1063 555.286 54.5687 556.662 54.6808C556.662 54.4186 558.3 50.2571 558.3 50.2571L554.892 48.3238Z" fill="#263238"/>
<path d="M585.251 66.1659C586.086 66.6738 587.282 65.0681 588.331 63.9704C588.738 63.5054 589.257 63.1518 589.839 62.9431C590.421 62.7343 591.046 62.6772 591.656 62.7772C592.266 62.8773 592.84 63.1311 593.325 63.5147C593.809 63.8983 594.188 64.3991 594.426 64.9698C596.146 68.5907 592.247 73.4075 589.953 75.0132C589.311 75.5668 588.51 75.903 587.666 75.9736C586.821 76.0443 585.976 75.8457 585.251 75.4064L584.644 89.2671C583.634 91.4914 582.088 93.4299 580.143 94.9083C578.198 96.3868 575.917 97.359 573.503 97.7376C565.311 98.8353 566.95 92.1179 569.702 88.8411V83.713C567.674 84.1545 565.588 84.2597 563.526 84.0243C562.461 83.7458 559.921 80.7475 558.283 77.2577C556.448 73.4075 553.368 66.5918 556.12 55.0412C559.036 42.6222 572.373 42.2454 580.319 47.2589C588.265 52.2723 585.251 66.1659 585.251 66.1659Z" fill="#FFD2D1"/>
<path d="M585.251 67.5094C585.677 67.5094 587.283 64.8388 588.331 63.8886C589.773 62.5779 587.905 50.634 587.905 50.634C587.905 50.634 589.364 46.0957 586.513 43.0974C583.662 40.0992 578.092 40.5907 574.028 40.4432C569.043 40.4749 564.103 39.4881 559.512 37.5433C553.745 35.0366 553.319 34.7416 552.598 37.2648C551.877 39.7879 551.615 45.6042 555.056 49.4871L557.923 50.5357C557.923 50.5357 559.463 51.912 564.837 52.5673C569.805 52.9364 574.796 52.8431 579.746 52.2888C581.385 52.0758 581.63 53.5831 582.482 57.7118C583.22 61.3327 583.826 67.4766 585.251 67.5094Z" fill="#263238"/>
<path d="M587.888 51.5515L592.984 48.8318C592.822 48.4887 592.592 48.1821 592.308 47.9304C592.024 47.6788 591.692 47.4875 591.332 47.368C590.972 47.2485 590.592 47.2034 590.214 47.2353C589.836 47.2672 589.468 47.3756 589.134 47.5538C588.452 47.932 587.942 48.5586 587.71 49.3031C587.478 50.0476 587.542 50.8529 587.888 51.5515V51.5515Z" fill="#263238"/>
<path d="M569.72 83.7132C573.193 83.0503 576.598 82.0742 579.894 80.7968C581.446 79.9942 582.715 78.7365 583.532 77.1924C583.135 78.7308 582.433 80.1739 581.467 81.4358C579.534 83.9098 569.72 85.712 569.72 85.712V83.7132Z" fill="#F2C6C6"/>
<path d="M571.538 64.1999C571.563 64.4911 571.673 64.7686 571.853 64.9987C572.033 65.2287 572.276 65.4014 572.553 65.4956C572.83 65.5899 573.128 65.6017 573.411 65.5295C573.694 65.4574 573.951 65.3045 574.148 65.0894C574.346 64.8743 574.477 64.6063 574.526 64.318C574.574 64.0297 574.538 63.7336 574.421 63.4658C574.304 63.1979 574.111 62.9698 573.867 62.8092C573.623 62.6487 573.337 62.5626 573.045 62.5615C572.634 62.5945 572.25 62.7816 571.97 63.0854C571.691 63.3891 571.536 63.7872 571.538 64.1999Z" fill="#263238"/>
<path d="M573.144 58.4983L576.421 60.2842C576.648 59.8404 576.696 59.3264 576.556 58.848C576.416 58.3696 576.098 57.963 575.667 57.7119C575.452 57.5885 575.213 57.5108 574.967 57.4837C574.72 57.4566 574.471 57.4807 574.234 57.5545C573.997 57.6284 573.778 57.7503 573.59 57.9127C573.403 58.0751 573.251 58.2745 573.144 58.4983Z" fill="#263238"/>
<path d="M571.652 74.4563L568.195 75.7506C568.27 75.9817 568.392 76.1951 568.552 76.3781C568.711 76.5611 568.907 76.7099 569.126 76.8155C569.344 76.9211 569.582 76.9813 569.825 76.9926C570.068 77.0039 570.31 76.966 570.538 76.8811C571.002 76.7009 571.378 76.347 571.586 75.8944C571.794 75.4418 571.818 74.926 571.652 74.4563V74.4563Z" fill="#F2C6C6"/>
<path d="M558.07 59.7598L561.019 57.4988C560.881 57.298 560.703 57.1276 560.496 56.9982C560.29 56.8687 560.059 56.7829 559.818 56.7461C559.577 56.7093 559.331 56.7221 559.095 56.784C558.859 56.8458 558.639 56.9553 558.447 57.1056C558.056 57.4159 557.8 57.864 557.73 58.3576C557.66 58.8513 557.781 59.3531 558.07 59.7598V59.7598Z" fill="#263238"/>
<path d="M558.971 63.7739C558.997 64.0651 559.106 64.3426 559.286 64.5726C559.467 64.8027 559.71 64.9753 559.987 65.0696C560.263 65.1639 560.562 65.1756 560.845 65.1035C561.128 65.0314 561.384 64.8785 561.582 64.6633C561.78 64.4482 561.911 64.1802 561.959 63.892C562.008 63.6037 561.971 63.3076 561.854 63.0397C561.737 62.7718 561.545 62.5438 561.301 62.3832C561.056 62.2227 560.771 62.1366 560.478 62.1355C560.27 62.1395 560.065 62.1856 559.876 62.271C559.686 62.3565 559.516 62.4795 559.375 62.6326C559.234 62.7857 559.125 62.9658 559.056 63.1619C558.987 63.3581 558.958 63.5663 558.971 63.7739V63.7739Z" fill="#263238"/>
<path d="M566.672 62.3484L566.18 71.4251L561.429 69.8194L566.672 62.3484Z" fill="#F2C6C6"/>
<path d="M590.166 299.997V298.62C589.249 299.03 587.102 307.222 583.252 310.728C580.205 313.513 576.043 316.725 574.978 319.821C573.913 322.918 580.778 324.835 583.629 324.327C586.906 323.753 592.689 321.41 594.131 319.248C595.573 317.085 596.245 313.907 597.408 312.317C598.571 310.728 601.291 308.959 601.913 307.124C602.112 305.43 601.938 303.714 601.406 302.094C600.963 300.455 600.472 298.506 599.898 298.67V299.718C598.523 300.804 596.817 301.382 595.065 301.356C593.59 301.356 590.166 301.078 590.166 299.997Z" fill="#263238"/>
<path d="M556.53 284.678C556.038 284.678 555.629 285.415 554.515 286.611C552.859 288.281 550.938 289.665 548.829 290.707C545.208 292.526 538.163 295.311 534.969 296.736C532.986 297.637 533.068 300.013 535.132 301.406C537.197 302.798 542.161 303.765 548.125 302.438C551.402 301.701 555.612 298.702 558.283 298.866C560.953 299.03 565.983 298.997 567.949 297.621C569.915 296.245 569.145 293.361 568.588 290.854C568.031 288.348 567.097 283.957 566.196 284.137V284.989C565.033 286.758 559.102 287.479 556.546 286.185L556.53 284.678Z" fill="#263238"/>
<path d="M587.577 95.4766L557.71 126.377C557.71 126.377 531.496 121.691 522.55 119.119C519.732 118.316 517.766 114.105 517.143 110.927C516.986 109.266 516.179 107.735 514.899 106.667C514.899 106.667 514.899 108.977 514.309 112.778C514.079 114.416 511.474 114.629 509.181 115.121C500.989 116.89 498.187 115.121 494.812 117.48C492.191 119.348 495.467 124.198 501.464 125.852C509.852 128.146 514.489 126.999 519.601 128.261C523.549 129.244 551.959 138.091 557.366 139.353C560.233 139.975 562.412 139.779 565.558 136.698C568.703 133.618 592.263 113.073 592.263 113.073L587.577 95.4766Z" fill="#FFD2D1"/>
<path d="M588.873 94.4118C585.596 93.5926 565.624 117.349 565.624 117.349L576.634 126.59C576.634 126.59 590.872 117.251 593.411 113.483C595.951 109.714 598.785 96.8858 588.873 94.4118Z" fill="#1E959B"/>
<path d="M577.338 127.229C577.338 127.229 592.379 113.761 593.083 112.287C594.443 109.436 594.082 104.193 594.082 104.193C594.082 104.193 595.721 108.764 594.082 112.287C592.444 115.809 580.975 125.803 579.157 127.524L577.305 129.26L575.536 127.622L576.601 126.672L577.338 127.229Z" fill="#1E959B"/>
<path opacity="0.2" d="M577.338 127.229C577.338 127.229 592.379 113.761 593.083 112.287C594.443 109.436 594.082 104.193 594.082 104.193C594.082 104.193 595.721 108.764 594.082 112.287C592.444 115.809 580.975 125.803 579.157 127.524L577.305 129.26L575.536 127.622L576.601 126.672L577.338 127.229Z" fill="black"/>
<path d="M501.792 60.53C505.069 60.1695 507.248 57.7447 507.985 58.4328C508.273 58.7615 508.432 59.1836 508.432 59.6206C508.432 60.0577 508.273 60.4798 507.985 60.8085C506.472 61.9508 504.821 62.8976 503.07 63.6265C502.651 65.2907 502.35 66.9824 502.169 68.6891C501.907 71.1959 501.989 76.2093 499.859 77.9296C493.453 83.0578 491.798 74.8986 492.06 69.4264C492.486 62.6435 498.352 60.9068 501.792 60.53Z" fill="#F2C6C6"/>
</svg>
