<svg width="151" height="159" viewBox="0 0 151 159" fill="none" xmlns="http://www.w3.org/2000/svg">
<path d="M4.24723 83.4772L28.4193 100.146V148.063C28.4193 153.88 33.1344 158.595 38.9507 158.595H112.67C118.486 158.595 123.201 153.88 123.201 148.063V100.146L147.371 83.4772C149.509 82.003 150.787 79.5716 150.787 76.9741C150.787 74.3767 149.509 71.9452 147.371 70.471L123.201 53.8078V11.1559C123.201 5.33956 118.486 0.624512 112.67 0.624512H38.9507C33.1344 0.624512 28.4193 5.33956 28.4193 11.1559V53.8078L4.24723 70.4737C2.10976 71.948 0.833496 74.3788 0.833496 76.9755C0.833496 79.5721 2.10976 82.0029 4.24723 83.4772ZM123.201 60.2003L144.383 74.81C145.095 75.3015 145.52 76.1115 145.52 76.9768C145.52 77.842 145.095 78.6521 144.383 79.1436L123.201 93.7506V60.2003ZM96.0595 5.89018L92.6816 9.49191C91.6867 10.5529 90.2974 11.1552 88.8429 11.1559H62.7778C61.3229 11.154 59.9331 10.552 58.9365 9.49191L55.5612 5.89018H96.0595ZM33.685 56.5697L34.7144 55.8588C35.5917 55.2529 36.017 54.1777 35.7915 53.1356C35.566 52.0935 34.7343 51.2903 33.685 51.1013V11.1559C33.685 8.24771 36.0425 5.89018 38.9507 5.89018H48.342L55.0952 13.0936C57.0893 15.2125 59.8682 16.4163 62.7778 16.4215H88.8429C91.7529 16.4181 94.5326 15.2141 96.5255 13.0936L103.279 5.89018H112.67C115.578 5.89018 117.936 8.24771 117.936 11.1559V51.1013C116.886 51.2903 116.055 52.0935 115.829 53.1356C115.604 54.1777 116.029 55.2529 116.906 55.8588L117.936 56.5697V97.3786L77.3032 125.405C76.4036 126.025 75.2145 126.025 74.3149 125.405L33.685 97.3839V56.5697ZM33.685 103.779L71.3345 129.739C74.0385 131.589 77.6007 131.589 80.3046 129.739L117.936 103.779V134.899C117.936 137.807 115.578 140.165 112.67 140.165H38.9507C36.0425 140.165 33.685 137.807 33.685 134.899V103.779ZM33.685 143.967C35.2788 144.914 37.0965 145.42 38.9507 145.431H112.67C114.524 145.42 116.342 144.914 117.936 143.967V148.063C117.936 150.972 115.578 153.329 112.67 153.329H38.9507C36.0425 153.329 33.685 150.972 33.685 148.063V143.967ZM7.23814 74.81L28.4193 60.1951V93.7532L7.2355 79.1436C6.52338 78.6521 6.09823 77.842 6.09823 76.9768C6.09823 76.1115 6.52338 75.3015 7.2355 74.81H7.23814Z" fill="#F8FFFF"/>
<path d="M58.4888 38.9034C59.0212 38.9023 59.5408 38.7398 59.979 38.4374L65.0314 34.9515C65.8318 34.4284 66.2857 33.5124 66.2171 32.5587C66.1484 31.605 65.5682 30.7634 64.7011 30.3602C63.8341 29.9571 62.8166 30.0557 62.0431 30.6178L56.9933 34.1011C56.0425 34.7549 55.6282 35.9516 55.9713 37.0533C56.3144 38.1551 57.3349 38.905 58.4888 38.9034Z" fill="#F8FFFF"/>
<path d="M46.8874 41.0702L41.8482 44.5561C40.6822 45.3919 40.4 47.0074 41.2135 48.189C42.0271 49.3707 43.637 49.6834 44.8338 48.8924L49.8862 45.4065C51.0522 44.5707 51.3345 42.9552 50.5209 41.7735C49.7073 40.5919 48.0974 40.2792 46.9006 41.0702H46.8874Z" fill="#F8FFFF"/>
<path d="M75.1376 27.9822L75.8116 27.5188L76.4857 27.9822C77.6815 28.7638 79.2825 28.449 80.0935 27.2729C80.9045 26.0968 80.6296 24.4885 79.4739 23.6485L77.3045 22.1531C76.4054 21.5343 75.2178 21.5343 74.3188 22.1531L72.1494 23.6485C70.9937 24.4885 70.7188 26.0968 71.5298 27.2729C72.3408 28.449 73.9418 28.7638 75.1376 27.9822Z" fill="#F8FFFF"/>
<path d="M91.6451 38.4372C92.842 39.2283 94.4518 38.9155 95.2654 37.7339C96.079 36.5523 95.7968 34.9368 94.6308 34.101L89.5784 30.6177C88.8066 30.013 87.7627 29.8873 86.8694 30.2915C85.9761 30.6956 85.3813 31.5627 85.326 32.5416C85.2706 33.5205 85.7638 34.4491 86.6059 34.9514L91.6451 38.4372Z" fill="#F8FFFF"/>
<path d="M106.802 48.8924C107.576 49.4262 108.577 49.5062 109.426 49.1023C110.276 48.6983 110.845 47.8718 110.92 46.9341C110.995 45.9964 110.564 45.0899 109.79 44.5561L104.737 41.0702C103.541 40.2792 101.931 40.5919 101.117 41.7735C100.304 42.9552 100.586 44.5707 101.752 45.4065L106.802 48.8924Z" fill="#F8FFFF"/>
<path d="M75.812 92.7737C76.3054 92.7737 76.7889 92.635 77.2074 92.3735L98.2701 79.2093C99.0399 78.7282 99.5075 77.8845 99.5075 76.9767V53.2812C99.5075 52.3734 99.0399 51.5296 98.2701 51.0485L77.2074 37.8843C76.3536 37.3507 75.2703 37.3507 74.4166 37.8843L53.3539 51.0485C52.5841 51.5296 52.1165 52.3734 52.1165 53.2812V76.9767C52.1165 77.8845 52.5841 78.7282 53.3539 79.2093L74.4166 92.3735C74.835 92.635 75.3185 92.7737 75.812 92.7737ZM94.2418 75.5181L78.4448 85.4018V67.9066L94.2418 58.0334V75.5181ZM75.812 43.2211L91.9065 53.2812L75.812 63.3412L59.7175 53.2812L75.812 43.2211ZM73.1791 85.4018L57.3821 75.5286V58.0334L73.1791 67.9066V85.4018Z" fill="#F8FFFF"/>
</svg>
