<svg width="160" height="170" viewBox="0 0 160 170" fill="none" xmlns="http://www.w3.org/2000/svg">
<path d="M159.082 41.4861C159.082 33.8241 152.894 27.5914 145.286 27.5914C141.38 27.5914 137.85 29.2378 135.337 31.8741L81.4958 0.56842C80.4795 -0.0221556 79.2284 -0.0221556 78.2121 0.56842L24.3696 31.8741C21.8571 29.2378 18.3283 27.5914 14.4223 27.5914C6.8143 27.5914 0.625488 33.8241 0.625488 41.4861C0.625488 48.007 5.11023 53.4902 11.1374 54.9789V117.568C11.1374 118.749 11.7636 119.841 12.7798 120.433L66.6044 151.73C66.2477 152.963 66.0526 154.265 66.0526 155.613C66.0526 163.274 72.2414 169.508 79.8494 169.508C87.4562 169.508 93.645 163.274 93.645 155.613C93.645 154.267 93.4512 152.967 93.0945 151.734L146.928 120.433C147.944 119.843 148.571 118.749 148.571 117.568V54.9789C154.598 53.4902 159.082 48.007 159.082 41.4861ZM7.19541 41.4861C7.19541 37.4723 10.4367 34.208 14.4223 34.208C18.4066 34.208 21.6479 37.4723 21.6479 41.4861C21.6479 45.4987 18.4066 48.7643 14.4223 48.7643C10.4367 48.7643 7.19541 45.4987 7.19541 41.4861ZM79.8494 162.891C75.8639 162.891 72.6225 159.627 72.6225 155.613C72.6225 151.601 75.8639 148.335 79.8494 148.335C83.8337 148.335 87.0764 151.601 87.0764 155.613C87.0764 159.627 83.8337 162.891 79.8494 162.891ZM89.8044 146.008C87.2906 143.367 83.7593 141.719 79.8494 141.719C75.9421 141.719 72.4108 143.366 69.8983 146.004L17.7073 115.658V54.9789C23.7331 53.4902 28.2179 48.007 28.2179 41.4861C28.2179 40.137 28.0228 38.833 27.6648 37.5976L79.8533 7.25342L132.043 37.5976C131.685 38.833 131.49 40.1357 131.49 41.4861C131.49 48.007 135.975 53.4902 142.001 54.9789V115.658L89.8044 146.008ZM145.286 48.7643C141.301 48.7643 138.059 45.4987 138.059 41.4861C138.059 37.4723 141.301 34.208 145.286 34.208C149.271 34.208 152.512 37.4723 152.512 41.4861C152.512 45.4987 149.271 48.7643 145.286 48.7643Z" fill="#F8FFFF"/>
<path d="M124.856 51.4462L81.495 26.2349C80.4787 25.6443 79.2276 25.6443 78.2113 26.2349L34.8499 51.4462C33.8336 52.038 33.2074 53.13 33.2074 54.3112V104.735C33.2074 105.916 33.8336 107.009 34.8499 107.6L78.2113 132.812C78.7195 133.107 79.2854 133.256 79.8525 133.256C80.421 133.256 80.9869 133.107 81.495 132.812L124.856 107.6C125.873 107.009 126.499 105.916 126.499 104.735V54.3112C126.499 53.13 125.873 52.038 124.856 51.4462ZM79.8525 32.9199L116.644 54.3112L79.8525 75.7037L43.0623 54.3112L79.8525 32.9199ZM83.1375 124.217V109.298C83.1375 107.471 81.6669 105.99 79.8525 105.99C78.0394 105.99 76.5688 107.471 76.5688 109.298V124.217L39.7773 102.825V60.0412L78.2113 82.3887C78.7195 82.6833 79.2854 82.832 79.8525 82.832C80.421 82.832 80.9869 82.6833 81.495 82.3887L119.929 60.0412V102.825L83.1375 124.217Z" fill="#F8FFFF"/>
<path d="M79.85 91.1025C78.9825 91.1025 78.1382 91.4553 77.5235 92.0718C76.9128 92.6869 76.5612 93.5398 76.5612 94.4108C76.5612 95.2805 76.9128 96.1334 77.5235 96.7485C78.1382 97.365 78.9825 97.7191 79.85 97.7191C80.7135 97.7191 81.5617 97.365 82.1725 96.7485C82.7833 96.1334 83.1349 95.2805 83.1349 94.4108C83.1349 93.5398 82.7833 92.6869 82.1725 92.0718C81.5617 91.4553 80.7135 91.1025 79.85 91.1025Z" fill="#F8FFFF"/>
</svg>
