<svg width="157" height="157" viewBox="0 0 157 157" fill="none" xmlns="http://www.w3.org/2000/svg">
<path d="M50.5491 81.1807C51.7888 81.4035 52.9774 80.5805 53.2011 79.3395L54.2726 73.4032L56.0626 79.4704C56.4084 80.6426 57.404 81.2726 58.5756 81.3295C59.6065 81.3241 60.7768 80.4691 61.0672 79.447L62.7949 73.3868L63.9369 79.3623C64.1734 80.6006 65.369 81.4132 66.6075 81.1761C67.8457 80.9396 68.6578 79.7437 68.421 78.5055L65.7273 64.4103C65.2086 61.8639 61.3731 61.7375 60.6645 64.2042L58.529 71.6956L56.3122 64.1817C55.5753 61.6438 51.7346 61.9357 51.2461 64.4645L48.7079 78.5286C48.4842 79.7696 49.3084 80.957 50.5491 81.1807Z" fill="#F8FFFF"/>
<path d="M22.4303 81.3299C24.8489 81.3299 27.1679 80.3367 28.7291 78.4749C29.5387 77.5085 29.4118 76.0687 28.4451 75.2591C27.479 74.4494 26.0393 74.5761 25.2293 75.5428C22.4062 78.5208 17.3608 75.6673 17.4917 71.8263C17.4403 67.9311 21.9944 65.5104 25.1892 67.73C26.235 68.4364 27.6531 68.161 28.359 67.1163C29.0645 66.0717 28.79 64.6527 27.7453 63.9468C21.5503 59.6803 12.8612 64.2981 12.926 71.8263C12.9263 77.0665 17.1898 81.3299 22.4303 81.3299Z" fill="#F8FFFF"/>
<path d="M35.0624 81.3302C36.3234 81.3302 37.3452 80.3081 37.3452 79.0473V76.2245L41.157 80.5555C42.2028 81.5146 43.2767 81.5831 44.3788 80.761C45.3251 79.9282 45.4171 78.4854 44.5843 77.5391L41.3816 73.9003C47.5459 71.2321 45.68 62.4175 38.9049 62.3223H35.0673C33.8047 62.3195 32.7795 63.3426 32.7795 64.6051V79.0473C32.7795 80.3081 33.8016 81.3302 35.0624 81.3302ZM38.9049 66.8877C41.1308 67.0112 41.1293 69.7056 38.9049 69.8289C38.5329 69.8289 37.9573 69.8307 37.3644 69.8334C37.3604 68.8515 37.358 67.8696 37.3571 66.8877H38.9049Z" fill="#F8FFFF"/>
<path d="M101.157 60.8487V50.5196C101.052 47.4968 96.6949 47.4992 96.5914 50.5196V60.8487C96.6961 63.8712 101.054 63.8691 101.157 60.8487Z" fill="#F8FFFF"/>
<path d="M127.694 60.8487V50.5196C127.589 47.4968 123.232 47.4992 123.128 50.5196V60.8487C123.232 63.8712 127.59 63.8691 127.694 60.8487Z" fill="#F8FFFF"/>
<path d="M117.412 58.0726V53.2957C117.121 46.3032 107.16 46.3083 106.872 53.2957V58.0726C107.163 65.0657 117.124 65.0599 117.412 58.0726ZM112.846 58.0726C112.822 59.0013 111.462 59.001 111.438 58.0726V53.2957C111.462 52.367 112.822 52.3679 112.846 53.2957V58.0726Z" fill="#F8FFFF"/>
<path d="M114.425 43.3036V32.9744C114.32 29.9516 109.963 29.9541 109.859 32.9744V43.3036C109.964 46.326 114.321 46.3239 114.425 43.3036Z" fill="#F8FFFF"/>
<path d="M104.144 35.7505C103.854 28.7577 93.8921 28.7628 93.6045 35.7505V40.5274C93.8949 47.5202 103.856 47.5144 104.144 40.5274V35.7505ZM99.5782 40.5274C99.5539 41.4558 98.1942 41.4555 98.1702 40.5274V35.7505C98.1945 34.8215 99.5542 34.8224 99.5782 35.7505V40.5274Z" fill="#F8FFFF"/>
<path d="M130.682 35.7505C130.392 28.7577 120.43 28.7628 120.143 35.7505V40.5274C120.433 47.5202 130.394 47.5144 130.682 40.5274V35.7505ZM126.116 40.5274C126.092 41.4558 124.732 41.4555 124.708 40.5274V35.7505C124.733 34.8215 126.092 34.8224 126.116 35.7505V40.5274Z" fill="#F8FFFF"/>
<path d="M109.859 68.065V78.3941C109.964 81.4169 114.321 81.4145 114.425 78.3941V68.065C114.32 65.0422 109.963 65.0447 109.859 68.065Z" fill="#F8FFFF"/>
<path d="M93.6045 70.8413V75.6182C93.8949 82.6111 103.856 82.6053 104.144 75.6182V70.8413C103.854 63.8485 93.8921 63.8537 93.6045 70.8413ZM98.1702 70.8413C98.1945 69.9123 99.5542 69.9133 99.5782 70.8413V75.6182C99.5539 76.5466 98.1942 76.5463 98.1702 75.6182V70.8413Z" fill="#F8FFFF"/>
<path d="M120.143 70.8413V75.6182C120.433 82.6111 130.394 82.6053 130.682 75.6182V70.8413C130.392 63.8485 120.43 63.8537 120.143 70.8413ZM124.708 70.8413C124.733 69.9123 126.092 69.9133 126.116 70.8413V75.6182C126.092 76.5466 124.732 76.5463 124.708 75.6182V70.8413Z" fill="#F8FFFF"/>
<path d="M153.397 120.923C153.396 120.921 153.394 120.919 153.393 120.916C148.149 110.209 134.866 105.013 123.758 109.154V90.5331H133.404C139.143 90.5331 143.812 85.8642 143.812 80.1251V62.2614C143.812 59.3098 139.247 59.3098 139.247 62.2614V80.1251C139.247 83.3467 136.626 85.9674 133.404 85.9674H113.836C113.345 85.9674 112.867 86.126 112.473 86.4191L102.792 93.625V88.2502C102.792 86.9895 101.77 85.9674 100.509 85.9674H90.8809C87.6594 85.9674 85.0384 83.3467 85.0384 80.1251V51.953C85.0387 51.9371 85.0387 51.9216 85.0384 51.9058V30.3396C85.0384 27.118 87.6594 24.4973 90.8809 24.4973H133.404C136.626 24.4973 139.246 27.118 139.246 30.3396V50.0953C139.246 53.0469 143.812 53.0469 143.812 50.0953V30.3396C143.812 24.6005 139.143 19.9316 133.404 19.9316H90.8812C85.1422 19.9316 80.473 24.6005 80.473 30.3396V49.6464H13.3692C6.09634 49.6464 0.17981 55.5629 0.17981 62.8358V122.305C0.17981 128.599 5.30008 133.719 11.594 133.719H16.9207C19.8722 133.719 19.8722 129.153 16.9207 129.153H11.594C7.81791 129.153 4.7455 126.081 4.7455 122.305V114.533H115.124C111.197 118.33 108.551 123.443 107.907 129.153H29.778C26.8264 129.153 26.8264 133.719 29.778 133.719H48.6678L44.474 151.448H36.401C35.1399 151.448 34.1181 152.47 34.1181 153.73C34.1181 154.991 35.1399 156.013 36.401 156.013H87.5367C88.7978 156.013 89.8196 154.991 89.8196 153.73C89.8196 152.47 88.7978 151.448 87.5367 151.448H79.4637L75.2699 133.719H107.821C108.059 136.909 108.916 139.968 110.379 142.835C114.527 150.964 122.768 156.013 131.888 156.013C149.642 156.234 161.656 136.618 153.397 120.923ZM123.352 136.224C123.351 136.223 123.35 136.22 123.349 136.219C120.074 129.988 124.847 122.213 131.888 122.3C135.505 122.3 138.776 124.306 140.424 127.534C143.705 133.766 138.932 141.546 131.888 141.459C128.27 141.459 124.999 139.453 123.352 136.224ZM148.175 121.023L143.292 123.51C141.1 120.511 137.833 118.509 134.171 117.917V112.442C139.887 113.103 144.986 116.228 148.175 121.023ZM4.7455 62.8358C4.7455 58.0804 8.61417 54.2121 13.3692 54.2121H80.473V80.1251C80.473 85.8642 85.1422 90.5331 90.8812 90.5331H98.2268V98.17C98.2268 100.008 100.381 101.111 101.873 100.001L114.593 90.5331H119.192V109.968H4.7455V62.8358ZM129.605 112.443V117.918C121.35 119.096 115.684 128.122 118.41 136.181L113.547 138.658L113.527 138.668C109.014 127.018 117.354 113.666 129.605 112.443ZM74.7717 151.448H49.1657L53.3592 133.719H70.5779L74.7717 151.448ZM131.888 151.448C125.263 151.448 119.209 148.161 115.601 142.735L120.484 140.249C130.159 152.955 149.927 142.925 145.366 127.577L149.216 125.616L150.249 125.09C155.059 137.572 145.29 151.637 131.888 151.448Z" fill="#F8FFFF"/>
<path d="M12.7647 42.6106C14.0257 42.6106 15.0475 41.5885 15.0475 40.3277V28.4895H23.9957V40.3277C23.9957 43.2793 28.5613 43.2793 28.5613 40.3277V26.2067C28.5613 24.9459 27.5395 23.9238 26.2785 23.9238H12.7647C11.5036 23.9238 10.4818 24.9459 10.4818 26.2067V40.3277C10.4818 41.5885 11.5036 42.6106 12.7647 42.6106Z" fill="#F8FFFF"/>
<path d="M54.0867 42.6106C55.3477 42.6106 56.3695 41.5885 56.3695 40.3278V19.8516H65.3177V40.3275C65.3177 43.2791 69.8834 43.2791 69.8834 40.3275V17.5687C69.8834 16.308 68.8616 15.2859 67.6005 15.2859H54.0867C52.8256 15.2859 51.8038 16.308 51.8038 17.5687V40.3275C51.8038 41.5885 52.8256 42.6106 54.0867 42.6106Z" fill="#F8FFFF"/>
<path d="M33.4252 42.6108C34.6862 42.6108 35.708 41.5887 35.708 40.3279V4.73684H44.6562V40.3276C44.6562 43.2792 49.2219 43.2792 49.2219 40.3276V2.45399C49.2219 1.19325 48.2001 0.171143 46.939 0.171143H33.4252C32.1641 0.171143 31.1423 1.19325 31.1423 2.45399V40.3276C31.1423 41.5887 32.1641 42.6108 33.4252 42.6108Z" fill="#F8FFFF"/>
<path d="M68.7025 86.9646H15.2812C12.2584 87.0693 12.2608 91.4268 15.2812 91.5303H68.7025C71.7253 91.4256 71.7229 87.0684 68.7025 86.9646Z" fill="#F8FFFF"/>
<path d="M44.274 96.8599H15.2812C12.2584 96.9646 12.2608 101.322 15.2812 101.426H44.274C47.2968 101.321 47.2946 96.9634 44.274 96.8599Z" fill="#F8FFFF"/>
</svg>
