<svg width="158" height="158" viewBox="0 0 158 158" fill="none" xmlns="http://www.w3.org/2000/svg">
<path d="M74.1554 147.167H84.6297C86.0758 147.167 87.2483 145.995 87.2483 144.549C87.2483 143.103 86.0758 141.93 84.6297 141.93H74.1554C72.7093 141.93 71.5369 143.103 71.5369 144.549C71.5369 145.995 72.7093 147.167 74.1554 147.167Z" fill="#F8FFFF"/>
<path d="M34.8766 39.8059C36.3227 39.8059 37.4952 38.6335 37.4952 37.1874V21.4759H121.29V42.4245C121.29 43.8706 122.462 45.0431 123.908 45.0431C125.354 45.0431 126.527 43.8706 126.527 42.4245V11.0016C126.527 6.2882 120.483 0.527344 113.434 0.527344H45.3509C38.1237 0.535854 32.2666 6.39295 32.2581 13.6202V37.1874C32.2581 38.6335 33.4305 39.8059 34.8766 39.8059ZM37.4952 13.6202C37.4952 9.28156 41.0123 5.76449 45.3509 5.76449H113.434C117.972 5.76449 121.29 9.43049 121.29 11.0016V16.2388H37.4952V13.6202Z" fill="#F8FFFF"/>
<path d="M123.908 115.745C122.462 115.745 121.29 116.917 121.29 118.363V131.456H37.4952V120.982C37.4952 119.536 36.3227 118.363 34.8766 118.363C33.4305 118.363 32.2581 119.536 32.2581 120.982V144.549C32.2666 151.776 38.1237 157.633 45.3509 157.642H113.434C120.661 157.633 126.518 151.776 126.527 144.549V118.363C126.527 116.917 125.354 115.745 123.908 115.745ZM121.29 144.549C121.29 148.888 117.772 152.405 113.434 152.405H45.3509C41.0123 152.405 37.4952 148.888 37.4952 144.549V136.693H121.29V144.549Z" fill="#F8FFFF"/>
<path d="M74.1558 8.38306H68.9186C67.4725 8.38306 66.3 9.55552 66.3 11.0016C66.3 12.4477 67.4725 13.6202 68.9186 13.6202H74.1558C75.6019 13.6202 76.7743 12.4477 76.7743 11.0016C76.7743 9.55552 75.6019 8.38306 74.1558 8.38306Z" fill="#F8FFFF"/>
<path d="M89.867 8.38306H84.6298C83.1837 8.38306 82.0112 9.55552 82.0112 11.0016C82.0112 12.4477 83.1837 13.6202 84.6298 13.6202H89.867C91.3131 13.6202 92.4856 12.4477 92.4856 11.0016C92.4856 9.55552 91.3131 8.38306 89.867 8.38306Z" fill="#F8FFFF"/>
<path d="M157.348 51.2253C156.85 50.626 156.111 50.2794 155.332 50.28H86.5992L85.2637 41.2748C84.6742 37.4327 81.3788 34.5892 77.4918 34.5686H66.3V39.8057H77.4918C78.791 39.8048 79.8944 40.7566 80.0842 42.042L89.2335 103.801C89.823 107.643 93.1185 110.487 97.0054 110.507H103.442C104.861 114.58 109.312 116.731 113.385 115.312C115.636 114.528 117.405 112.759 118.19 110.507H129.628C131.074 114.598 135.562 116.741 139.652 115.295C143.743 113.849 145.887 109.36 144.44 105.27C142.994 101.18 138.506 99.0359 134.415 100.482C132.178 101.273 130.418 103.033 129.628 105.27H118.19C116.771 101.198 112.319 99.0464 108.247 100.465C105.996 101.249 104.226 103.019 103.442 105.27H97.0054C95.7092 105.263 94.6101 104.315 94.413 103.034L93.5803 97.4144H147.476C148.734 97.4134 149.815 96.5172 150.047 95.2802L157.903 53.3831C158.048 52.6171 157.845 51.826 157.348 51.2253ZM137.002 105.27C138.448 105.27 139.62 106.443 139.62 107.889C139.62 109.335 138.448 110.507 137.002 110.507C135.555 110.507 134.383 109.335 134.383 107.889C134.383 106.443 135.555 105.27 137.002 105.27ZM110.816 105.27C112.262 105.27 113.434 106.443 113.434 107.889C113.434 109.335 112.262 110.507 110.816 110.507C109.37 110.507 108.197 109.335 108.197 107.889C108.197 106.443 109.37 105.27 110.816 105.27ZM145.302 92.1772H92.8052L87.3769 55.5172H152.189L145.302 92.1772Z" fill="#F8FFFF"/>
<path d="M68.9183 79.0846C68.9183 60.284 53.6776 45.0432 34.8769 45.0432C16.0762 45.0432 0.835449 60.284 0.835449 79.0846C0.835449 97.8853 16.0762 113.126 34.8769 113.126C53.6684 113.104 68.8967 97.8762 68.9183 79.0846ZM6.07259 79.0846C6.07259 63.1765 18.9687 50.2804 34.8769 50.2804C50.7851 50.2804 63.6812 63.1765 63.6812 79.0846C63.6812 94.9928 50.7851 107.889 34.8769 107.889C18.9766 107.87 6.09125 94.9849 6.07259 79.0846Z" fill="#F8FFFF"/>
<path d="M37.4952 100.033V97.0429C43.0862 95.604 46.452 89.905 45.0131 84.314C43.823 79.6903 39.6513 76.4603 34.8766 76.4662C31.9841 76.4662 29.6395 74.1216 29.6395 71.229C29.6395 68.3365 31.9841 65.9919 34.8766 65.9919C37.7692 65.9919 40.1138 68.3365 40.1138 71.229C40.1138 72.6751 41.2862 73.8476 42.7323 73.8476C44.1785 73.8476 45.3509 72.6751 45.3509 71.229C45.3329 66.4675 42.1059 62.317 37.4952 61.1266V58.1362C37.4952 56.69 36.3227 55.5176 34.8766 55.5176C33.4305 55.5176 32.2581 56.69 32.2581 58.1362V61.1266C26.6671 62.5655 23.3012 68.2645 24.7401 73.8554C25.9303 78.4792 30.102 81.7092 34.8766 81.7033C37.7692 81.7033 40.1138 84.0479 40.1138 86.9405C40.1138 89.833 37.7692 92.1776 34.8766 92.1776C31.9841 92.1776 29.6395 89.833 29.6395 86.9405C29.6395 85.4943 28.467 84.3219 27.0209 84.3219C25.5748 84.3219 24.4023 85.4943 24.4023 86.9405C24.4203 91.702 27.6474 95.8524 32.2581 97.0429V100.033C32.2581 101.479 33.4305 102.652 34.8766 102.652C36.3227 102.652 37.4952 101.479 37.4952 100.033Z" fill="#F8FFFF"/>
<path d="M95.1044 63.3734H131.764C133.211 63.3734 134.383 62.2009 134.383 60.7548C134.383 59.3087 133.211 58.1362 131.764 58.1362H95.1044C93.6583 58.1362 92.4858 59.3087 92.4858 60.7548C92.4858 62.2009 93.6583 63.3734 95.1044 63.3734Z" fill="#F8FFFF"/>
<path d="M139.62 63.3734H144.857C146.303 63.3734 147.476 62.2009 147.476 60.7548C147.476 59.3087 146.303 58.1362 144.857 58.1362H139.62C138.174 58.1362 137.001 59.3087 137.001 60.7548C137.001 62.2009 138.174 63.3734 139.62 63.3734Z" fill="#F8FFFF"/>
</svg>
