<svg width="124" height="117" viewBox="0 0 124 117" fill="none" xmlns="http://www.w3.org/2000/svg">
<g filter="url(#filter0_d_7055_2206)">
<path d="M9.99951 25.6899C9.99951 14.6443 18.9538 5.68994 29.9995 5.68994H93.4996C104.545 5.68994 113.5 14.6442 113.5 25.6899V81.6233C113.5 92.669 104.545 101.623 93.4996 101.623H29.9995C18.9538 101.623 9.99951 92.669 9.99951 81.6233V25.6899Z" fill="url(#paint0_linear_7055_2206)"/>
</g>
<path fill-rule="evenodd" clip-rule="evenodd" d="M84.2635 35.5209C84.2635 36.222 84.0345 36.9205 83.5054 37.3804C82.3305 38.4016 80.7957 39.0198 79.1163 39.0198H74.3957C72.7389 39.0198 71.3957 37.6767 71.3957 36.0198V30.7902C71.3957 29.7612 71.6283 28.7864 72.0439 27.9155C72.4414 27.0827 73.3517 26.6753 74.2744 26.6753H81.2635C82.9204 26.6753 84.2635 28.0184 84.2635 29.6753V35.5209ZM79.1163 40.0485C81.2941 40.0485 84.2635 41.5402 84.2635 43.718V76.1389C84.2635 77.7957 82.9204 79.1389 81.2635 79.1389H42.9988C41.3419 79.1389 39.9988 77.7957 39.9988 76.1389V29.6753C39.9988 28.0184 41.3419 26.6753 42.9988 26.6753H67.2143C69.0979 26.6753 70.3663 28.9065 70.3663 30.7902V37.0485C70.3663 38.7054 71.7094 40.0485 73.3663 40.0485H79.1163ZM43.085 33.8762C43.085 33.3081 43.5458 32.8475 44.1144 32.8475H64.7026C65.2711 32.8475 65.732 33.3081 65.732 33.8762C65.732 34.4443 65.2711 34.9049 64.7026 34.9049H44.1144C43.5458 34.9049 43.085 34.4443 43.085 33.8762ZM43.085 39.0197C43.085 38.4516 43.5458 37.991 44.1144 37.991H64.7026C65.2711 37.991 65.732 38.4516 65.732 39.0197C65.732 39.5878 65.2711 40.0484 64.7026 40.0484H44.1144C43.5458 40.0484 43.085 39.5878 43.085 39.0197ZM44.1144 43.1345C43.5458 43.1345 43.085 43.5951 43.085 44.1632C43.085 44.7313 43.5458 45.1919 44.1144 45.1919H80.1438C80.7123 45.1919 81.1732 44.7313 81.1732 44.1632C81.1732 43.5951 80.7123 43.1345 80.1438 43.1345H44.1144ZM43.085 49.3067C43.085 48.7385 43.5458 48.278 44.1144 48.278H80.1438C80.7123 48.278 81.1732 48.7385 81.1732 49.3067C81.1732 49.8748 80.7123 50.3354 80.1438 50.3354H44.1144C43.5458 50.3354 43.085 49.8748 43.085 49.3067ZM44.1144 53.4215C43.5458 53.4215 43.085 53.882 43.085 54.4502C43.085 55.0183 43.5458 55.4789 44.1144 55.4789H80.1438C80.7123 55.4789 81.1732 55.0183 81.1732 54.4502C81.1732 53.882 80.7123 53.4215 80.1438 53.4215H44.1144ZM43.085 59.5936C43.085 59.0255 43.5458 58.5649 44.1144 58.5649H80.1438C80.7123 58.5649 81.1732 59.0255 81.1732 59.5936C81.1732 60.1618 80.7123 60.6223 80.1438 60.6223H44.1144C43.5458 60.6223 43.085 60.1618 43.085 59.5936ZM44.1144 63.7084C43.5458 63.7084 43.085 64.169 43.085 64.7371C43.085 65.3053 43.5458 65.7658 44.1144 65.7658H80.1438C80.7123 65.7658 81.1732 65.3053 81.1732 64.7371C81.1732 64.169 80.7123 63.7084 80.1438 63.7084H44.1144ZM43.085 69.8806C43.085 69.3125 43.5458 68.8519 44.1144 68.8519H80.1438C80.7123 68.8519 81.1732 69.3125 81.1732 69.8806C81.1732 70.4488 80.7123 70.9093 80.1438 70.9093H44.1144C43.5458 70.9093 43.085 70.4488 43.085 69.8806ZM44.1144 73.9954C43.5458 73.9954 43.085 74.456 43.085 75.0241C43.085 75.5922 43.5458 76.0528 44.1144 76.0528H80.1438C80.7123 76.0528 81.1732 75.5922 81.1732 75.0241C81.1732 74.456 80.7123 73.9954 80.1438 73.9954H44.1144Z" fill="#F8FAFD"/>
<defs>
<filter id="filter0_d_7055_2206" x="-0.000488281" y="0.689941" width="123.5" height="115.934" filterUnits="userSpaceOnUse" color-interpolation-filters="sRGB">
<feFlood flood-opacity="0" result="BackgroundImageFix"/>
<feColorMatrix in="SourceAlpha" type="matrix" values="0 0 0 0 0 0 0 0 0 0 0 0 0 0 0 0 0 0 127 0" result="hardAlpha"/>
<feOffset dy="5"/>
<feGaussianBlur stdDeviation="5"/>
<feColorMatrix type="matrix" values="0 0 0 0 0.117647 0 0 0 0 0.584314 0 0 0 0 0.607843 0 0 0 0.5 0"/>
<feBlend mode="normal" in2="BackgroundImageFix" result="effect1_dropShadow_7055_2206"/>
<feBlend mode="normal" in="SourceGraphic" in2="effect1_dropShadow_7055_2206" result="shape"/>
</filter>
<linearGradient id="paint0_linear_7055_2206" x1="113.5" y1="53.6566" x2="9.99951" y2="53.6566" gradientUnits="userSpaceOnUse">
<stop stop-color="#1E959B"/>
<stop offset="1" stop-color="#AFDEDE"/>
</linearGradient>
</defs>
</svg>
