<svg width="164" height="164" viewBox="0 0 164 164" fill="none" xmlns="http://www.w3.org/2000/svg">
<path d="M0.279056 109.454C0.277374 111.913 0.942431 114.327 2.20346 116.438C3.46449 118.549 5.27432 120.279 7.44038 121.444C9.60644 122.608 12.0477 123.164 14.5044 123.051C16.9611 122.939 19.3413 122.162 21.3918 120.805L43.375 142.788C42.2696 144.462 41.5481 146.36 41.262 148.345C40.9759 150.331 41.1324 152.355 41.7202 154.274C42.3079 156.192 43.3125 157.956 44.6619 159.441C46.0114 160.925 47.6723 162.093 49.5259 162.86C51.3794 163.628 53.3797 163.976 55.3835 163.88C57.3874 163.784 59.3453 163.246 61.117 162.305C62.8887 161.364 64.4304 160.043 65.6318 158.436C66.8332 156.83 67.6645 154.977 68.0662 153.012H95.8379C96.2373 154.98 97.0673 156.835 98.2682 158.444C99.469 160.054 101.011 161.377 102.784 162.321C104.557 163.264 106.516 163.803 108.522 163.9C110.528 163.997 112.53 163.649 114.385 162.88C116.241 162.112 117.903 160.943 119.253 159.456C120.603 157.97 121.608 156.203 122.195 154.283C122.782 152.363 122.937 150.336 122.648 148.349C122.36 146.362 121.635 144.463 120.527 142.788L132.369 130.946L128.519 127.096L116.677 138.938C114.82 137.708 112.689 136.953 110.472 136.739C108.255 136.525 106.02 136.859 103.962 137.711C101.904 138.563 100.087 139.907 98.6702 141.626C97.2534 143.344 96.2802 145.384 95.8362 147.567H68.0662C67.3363 144.023 65.2286 140.914 62.2067 138.923L63.7897 134.966L58.7343 132.944L57.1529 136.898C53.7049 136.268 50.147 137 47.2275 138.939L25.2443 116.956C27.1837 114.037 27.9156 110.479 27.2861 107.031L47.5742 98.9157L45.5522 93.8602L25.2569 101.976C23.2666 98.9535 20.1575 96.8457 16.6133 96.1157V68.3457C20.1575 67.6157 23.2666 65.5079 25.2569 62.4858L45.5488 70.6029L47.5708 65.5475L27.2823 57.4307C27.9118 53.9827 27.18 50.4249 25.2405 47.5053L42.1873 30.5585L38.3389 26.708L21.3921 43.6548C19.7179 42.5493 17.82 41.8276 15.8343 41.5414C13.8486 41.2552 11.8241 41.4115 9.90587 41.9993C7.98764 42.587 6.22307 43.5916 4.7385 44.9411C3.25393 46.2905 2.08608 47.9516 1.31856 49.8052C0.551043 51.6588 0.202841 53.6592 0.298883 55.6632C0.394925 57.6672 0.932836 59.6251 1.87411 61.3968C2.81538 63.1686 4.13672 64.7103 5.74354 65.9116C7.35036 67.1129 9.20291 67.9442 11.1686 68.3457V96.1174C8.09658 96.7489 5.3362 98.4201 3.35262 100.849C1.36904 103.279 0.283543 106.317 0.279056 109.454ZM109.174 142.122C110.789 142.122 112.368 142.601 113.712 143.499C115.055 144.396 116.101 145.672 116.72 147.164C117.338 148.656 117.499 150.298 117.184 151.883C116.869 153.467 116.091 154.922 114.949 156.064C113.807 157.206 112.352 157.984 110.767 158.299C109.183 158.615 107.541 158.453 106.049 157.835C104.556 157.217 103.281 156.17 102.383 154.827C101.486 153.484 101.007 151.905 101.007 150.289C101.01 148.124 101.871 146.048 103.402 144.517C104.933 142.986 107.009 142.125 109.174 142.122ZM54.7266 142.122C56.3419 142.122 57.9209 142.601 59.264 143.499C60.6071 144.396 61.6539 145.672 62.272 147.164C62.8902 148.656 63.0519 150.298 62.7368 151.883C62.4217 153.467 61.6438 154.922 60.5016 156.064C59.3594 157.206 57.9042 157.984 56.3199 158.299C54.7357 158.615 53.0935 158.453 51.6012 157.835C50.1088 157.217 48.8333 156.17 47.9359 154.827C47.0385 153.484 46.5595 151.905 46.5595 150.289C46.562 148.124 47.4233 146.048 48.9543 144.517C50.4854 142.986 52.5613 142.125 54.7266 142.122ZM5.72381 55.0061C5.72381 53.3908 6.2028 51.8118 7.10022 50.4687C7.99763 49.1256 9.27317 48.0788 10.7655 47.4607C12.2579 46.8425 13.9 46.6808 15.4843 46.9959C17.0685 47.311 18.5238 48.0889 19.666 49.2311C20.8082 50.3733 21.586 51.8285 21.9011 53.4128C22.2163 54.997 22.0545 56.6392 21.4364 58.1315C20.8182 59.6239 19.7714 60.8994 18.4284 61.7968C17.0853 62.6942 15.5062 63.1732 13.8909 63.1732C11.7257 63.1707 9.64978 62.3094 8.11869 60.7784C6.5876 59.2473 5.72633 57.1714 5.72381 55.0061ZM13.8909 101.287C15.5062 101.287 17.0853 101.766 18.4284 102.663C19.7714 103.56 20.8182 104.836 21.4364 106.328C22.0545 107.821 22.2163 109.463 21.9011 111.047C21.586 112.631 20.8082 114.086 19.666 115.229C18.5238 116.371 17.0685 117.149 15.4843 117.464C13.9 117.779 12.2579 117.617 10.7655 116.999C9.27317 116.381 7.99763 115.334 7.10022 113.991C6.2028 112.648 5.72381 111.069 5.72381 109.454C5.72633 107.288 6.5876 105.212 8.11869 103.681C9.64978 102.15 11.7257 101.289 13.8909 101.287ZM163.622 55.0061C163.623 52.5468 162.958 50.1331 161.697 48.0218C160.436 45.9104 158.626 44.1804 156.46 43.0159C154.294 41.8513 151.853 41.2958 149.396 41.4084C146.94 41.5209 144.559 42.2974 142.509 43.6552L120.526 21.672C121.632 19.9979 122.354 18.0999 122.641 16.114C122.927 14.128 122.771 12.1033 122.184 10.1847C121.596 8.26617 120.592 6.50127 119.242 5.0164C117.893 3.53153 116.231 2.36343 114.378 1.59576C112.524 0.828085 110.523 0.479831 108.519 0.575931C106.515 0.672032 104.557 1.21011 102.785 2.15164C101.013 3.09316 99.471 4.41484 98.2697 6.02202C97.0685 7.6292 96.2374 9.48212 95.8362 11.4481H68.0662C67.533 8.81808 66.2351 6.40406 64.3352 4.50881C62.4354 2.61356 60.0183 1.32146 57.387 0.794553C54.7557 0.267648 52.0274 0.529403 49.5443 1.54699C47.0612 2.56458 44.9338 4.29269 43.429 6.51458C41.9242 8.73648 41.1089 11.3532 41.0855 14.0367C41.062 16.7201 41.8314 19.3507 43.2971 21.5986C44.7628 23.8464 46.8597 25.6115 49.3246 26.6723C51.7895 27.7332 54.5128 28.0426 57.1529 27.5618L58.7343 31.5157L63.7897 29.4937L62.205 25.5364C65.2275 23.5464 67.3359 20.4372 68.0662 16.8928H95.8379C96.5678 20.437 98.6755 23.5461 101.697 25.5364L99.0254 32.2164L104.081 34.2385L106.751 27.5622C110.199 28.1917 113.757 27.4598 116.677 25.5204L138.66 47.5036C136.72 50.4232 135.989 53.981 136.618 57.429L116.33 65.5441L118.352 70.5995L138.644 62.4824C139.629 63.9794 140.899 65.2678 142.382 66.2738C143.866 67.2798 145.532 67.9839 147.287 68.3457V96.1174C143.743 96.8474 140.634 98.9552 138.644 101.977L130.603 98.7605L128.581 103.816L136.618 107.031C135.989 110.479 136.72 114.037 138.66 116.956L133.283 122.333L137.133 126.183L142.51 120.806C144.184 121.912 146.082 122.634 148.068 122.92C150.054 123.207 152.079 123.051 153.997 122.463C155.915 121.875 157.68 120.871 159.165 119.521C160.65 118.171 161.818 116.51 162.585 114.656C163.353 112.802 163.701 110.802 163.604 108.798C163.508 106.794 162.97 104.835 162.029 103.064C161.087 101.292 159.765 99.7502 158.158 98.549C156.551 97.3479 154.698 96.5169 152.732 96.1157V68.3457C155.805 67.7141 158.566 66.0424 160.549 63.6125C162.533 61.1825 163.618 58.1429 163.622 55.0061ZM54.7266 22.3376C53.1113 22.3376 51.5323 21.8586 50.1892 20.9612C48.8461 20.0638 47.7993 18.7882 47.1811 17.2959C46.563 15.8035 46.4013 14.1614 46.7164 12.5771C47.0315 10.9929 47.8094 9.53762 48.9516 8.39543C50.0938 7.25324 51.549 6.47539 53.1333 6.16026C54.7175 5.84513 56.3597 6.00687 57.852 6.62502C59.3444 7.24317 60.6199 8.28997 61.5173 9.63305C62.4147 10.9761 62.8937 12.5552 62.8937 14.1705C62.8912 16.3357 62.0299 18.4116 60.4988 19.9427C58.9677 21.4738 56.8919 22.3351 54.7266 22.3376ZM109.174 22.3376C107.559 22.3376 105.98 21.8586 104.637 20.9612C103.294 20.0638 102.247 18.7882 101.629 17.2959C101.011 15.8035 100.849 14.1614 101.164 12.5771C101.479 10.9929 102.257 9.53762 103.399 8.39543C104.541 7.25324 105.997 6.47539 107.581 6.16026C109.165 5.84513 110.807 6.00687 112.3 6.62502C113.792 7.24317 115.067 8.28997 115.965 9.63305C116.862 10.9761 117.341 12.5552 117.341 14.1705C117.339 16.3357 116.477 18.4116 114.946 19.9427C113.415 21.4738 111.339 22.3351 109.174 22.3376ZM158.177 109.454C158.177 111.069 157.698 112.648 156.8 113.991C155.903 115.334 154.628 116.381 153.135 116.999C151.643 117.617 150.001 117.779 148.416 117.464C146.832 117.149 145.377 116.371 144.235 115.229C143.093 114.086 142.315 112.631 142 111.047C141.684 109.463 141.846 107.821 142.464 106.328C143.082 104.836 144.129 103.56 145.472 102.663C146.815 101.766 148.394 101.287 150.01 101.287C152.175 101.289 154.251 102.15 155.782 103.681C157.313 105.212 158.174 107.288 158.177 109.454ZM150.01 63.1732C148.394 63.1732 146.815 62.6942 145.472 61.7968C144.129 60.8994 143.082 59.6239 142.464 58.1315C141.846 56.6392 141.684 54.997 142 53.4128C142.315 51.8285 143.093 50.3733 144.235 49.2311C145.377 48.0889 146.832 47.311 148.416 46.9959C150.001 46.6808 151.643 46.8425 153.135 47.4607C154.628 48.0788 155.903 49.1256 156.8 50.4687C157.698 51.8118 158.177 53.3908 158.177 55.0061C158.174 57.1714 157.313 59.2473 155.782 60.7784C154.251 62.3094 152.175 63.1707 150.01 63.1732ZM57.449 57.7285V120.343C57.4507 121.787 58.0249 123.171 59.0456 124.191C60.0663 125.212 61.4502 125.786 62.8937 125.788H92.8399V131.233H62.8937C60.0066 131.229 57.2387 130.081 55.1973 128.04C53.1558 125.998 52.0075 123.23 52.0042 120.343V57.7285H57.449ZM120.064 123.066V93.3127C120.068 91.8821 119.788 90.465 119.24 89.1433C118.693 87.8216 117.889 86.6216 116.874 85.6128L111.896 80.6352V100.159L116.544 104.806L112.694 108.656L107.249 103.212L98.0508 94.0133C97.7673 93.7299 97.4308 93.5051 97.0604 93.3517C96.6901 93.1983 96.2931 93.1194 95.8923 93.1194C95.4914 93.1195 95.0944 93.1984 94.7241 93.3519C94.3538 93.5053 94.0173 93.7302 93.7338 94.0137C93.4504 94.2972 93.2256 94.6337 93.0722 95.0041C92.9188 95.3744 92.8399 95.7714 92.8399 96.1723C92.8399 96.5731 92.9189 96.9701 93.0724 97.3404C93.2258 97.7108 93.4507 98.0472 93.7342 98.3307L102.932 107.529C103.377 107.974 103.654 108.559 103.716 109.185C103.778 109.812 103.621 110.44 103.272 110.964C101.888 113.047 101.077 115.458 100.922 117.955C100.766 120.451 101.272 122.944 102.388 125.183L103.442 127.293C103.631 127.671 103.73 128.088 103.729 128.51V131.233H98.2846V129.153L97.5169 127.618C96.1441 124.863 95.4363 121.825 95.4504 118.747C95.4646 115.669 96.2002 112.637 97.5982 109.895L89.8837 102.18C88.3015 100.584 87.4159 98.4267 87.4208 96.1793C87.4257 93.932 88.3207 91.7781 89.9098 90.189C91.499 88.5999 93.653 87.7051 95.9003 87.7003C98.1477 87.6956 100.305 88.5812 101.901 90.1636L106.452 94.714V46.839C106.45 45.3955 105.876 44.0116 104.855 42.9908C103.834 41.9701 102.451 41.3959 101.007 41.3942H94.5223L92.5523 45.3342C92.3262 45.7863 91.9787 46.1666 91.5486 46.4324C91.1186 46.6982 90.623 46.839 90.1175 46.839H73.7832C73.2777 46.839 72.7821 46.6982 72.3521 46.4324C71.9221 46.1666 71.5745 45.7863 71.3484 45.3342L69.3784 41.3942H62.8937C61.4502 41.3959 60.0663 41.9701 59.0456 42.9908C58.0249 44.0116 57.4507 45.3955 57.449 46.839V52.2837H52.0042V46.839C52.0075 43.9519 53.1558 41.184 55.1973 39.1425C57.2387 37.101 60.0066 35.9527 62.8937 35.9495H101.007C103.894 35.9527 106.662 37.101 108.703 39.1425C110.745 41.184 111.893 43.9519 111.896 46.839V72.935L120.724 81.7626C122.246 83.2759 123.452 85.0759 124.273 87.0584C125.094 89.041 125.514 91.1668 125.508 93.3127V123.066H120.064ZM76.5056 114.898H87.3951V120.343H76.5056V114.898ZM88.1924 81.4325C86.5357 79.7794 84.2908 78.851 81.9504 78.851C79.6099 78.851 77.365 79.7794 75.7083 81.4325L71.8582 77.5824C74.5369 74.9098 78.1664 73.4088 81.9504 73.4088C85.7343 73.4088 89.3638 74.9098 92.0425 77.5824L88.1924 81.4325ZM96.3595 74.5865C94.4673 72.6942 92.2209 71.1932 89.7486 70.1691C87.2762 69.1451 84.6264 68.618 81.9504 68.618C79.2743 68.618 76.6245 69.1451 74.1522 70.1691C71.6798 71.1932 69.4334 72.6942 67.5412 74.5865L63.691 70.7367C68.5375 65.9011 75.1041 63.1855 81.9504 63.1855C88.7966 63.1855 95.3632 65.9011 100.21 70.7367L96.3595 74.5865ZM84.6727 90.397V95.8418H79.228V90.397H84.6727ZM68.3385 90.397H73.7832V95.8418H68.3385V90.397Z" fill="#F8FFFF"/>
</svg>
