<svg width="70" height="53" viewBox="0 0 70 53" fill="none" xmlns="http://www.w3.org/2000/svg">
<g clip-path="url(#clip0_7055_1200)">
<path d="M44.8097 26.9154L64.6202 39.4392V13.8627L44.8097 26.9154Z" fill="#1E959B"/>
<path d="M5.85718 13.8627V39.4392L25.6677 26.9154L5.85718 13.8627Z" fill="#1E959B"/>
<path d="M60.9468 6.41455H9.52918C7.69651 6.41455 6.24213 7.78079 5.96667 9.54L35.238 28.8253L64.5093 9.54C64.2338 7.78079 62.7794 6.41455 60.9468 6.41455Z" fill="#1E959B"/>
<path d="M41.4455 29.1338L36.2487 32.5567C35.9402 32.7587 35.5913 32.8579 35.2387 32.8579C34.8861 32.8579 34.5372 32.7587 34.2287 32.5567L29.0318 29.1301L5.97473 43.7144C6.25753 45.4589 7.70457 46.8141 9.52989 46.8141H60.9475C62.7728 46.8141 64.2198 45.4589 64.5026 43.7144L41.4455 29.1338Z" fill="#1E959B"/>
</g>
<defs>
<clipPath id="clip0_7055_1200">
<rect width="69.3873" height="52.4636" fill="white"/>
</clipPath>
</defs>
</svg>
