<svg width="176" height="174" viewBox="0 0 176 174" fill="none" xmlns="http://www.w3.org/2000/svg">
<path d="M0.998101 140.76C2.33387 137.447 5.00541 136.284 8.34029 135.998C10.9883 135.765 13.6225 135.395 16.2322 134.889C17.0632 134.665 17.7718 134.121 18.2041 133.376C19.7534 130.482 21.1164 127.47 22.5839 124.549C23.7107 122.277 25.4599 120.968 28.0906 120.977C29.2633 120.93 30.4217 121.249 31.4051 121.89C32.3885 122.531 33.1482 123.461 33.579 124.553C34.1243 125.766 34.7876 126.302 36.1325 126.134C37.2608 126.06 38.3925 126.051 39.5219 126.107C26.1278 109.514 21.3163 90.8409 25.987 70.2637C30.6576 49.6865 43.252 35.0975 62.3344 26.0288C61.1895 24.2114 60.4126 22.3941 61.1713 20.2359C61.9982 17.8824 63.5793 16.424 66.0419 16.0424C69.2223 15.5471 72.4027 15.0837 75.6149 14.6793C76.9779 14.5112 77.8275 13.9842 78.4136 12.6666C79.6813 9.82239 81.1397 7.06907 82.5027 4.27032C83.6159 1.9986 85.3696 0.635571 87.9548 0.635571C90.6218 0.603767 92.4392 1.92591 93.5887 4.27032C94.9517 7.06907 96.4238 9.82239 97.6778 12.6666C98.3002 14.066 99.2634 14.5158 100.663 14.6839C103.634 15.0473 106.597 15.482 109.55 15.9878C114.588 16.8465 116.565 21.022 114.093 25.4473C113.984 25.6381 113.907 25.8471 113.784 26.1015C120.699 29.172 127.008 33.456 132.412 38.7504C143.189 49.4048 149.596 62.2263 151.318 77.3423C152.637 88.5527 150.939 99.9121 146.397 110.246C145.634 112.004 144.212 112.649 142.73 111.977C141.367 111.359 140.963 109.951 141.645 108.197C141.785 107.824 141.949 107.465 142.099 107.097C145.025 100.055 146.674 92.7037 146.515 85.0844C145.988 60.0955 134.371 42.1489 112.058 31.0402C110.204 30.1315 108.877 30.0634 107.664 31.8626C107.448 32.126 107.205 32.3651 106.937 32.5759C105.047 34.3933 104.738 35.5882 105.756 37.9326C105.951 38.387 106.633 38.6959 107.155 38.9276C120.786 44.9795 130.195 55.0023 134.934 69.1642C141.804 89.6687 134.175 112.499 116.519 124.958C116.129 125.235 115.752 125.535 115.006 126.098C119.95 126.098 124.457 126.098 128.964 126.066C129.373 126.066 129.873 125.612 130.172 125.271C132.044 123.072 133.907 120.859 135.706 118.601C137.069 116.916 138.378 116.498 139.732 117.484C141.086 118.469 141.095 120.001 139.891 121.677C139.359 122.413 138.823 123.145 138.269 123.863C137.715 124.58 137.228 125.162 136.483 126.084C138.251 126.084 139.714 126.221 141.127 126.016C141.635 125.939 142.131 125.107 142.449 124.521C144.234 121.2 147.687 119.892 150.718 121.686C151.897 122.445 152.866 123.489 153.535 124.721C155.084 127.484 156.429 130.369 157.756 133.249C157.949 133.743 158.281 134.169 158.713 134.477C159.145 134.784 159.657 134.959 160.186 134.98C163.494 135.385 166.802 135.839 170.086 136.407C171.194 136.556 172.233 137.028 173.075 137.763C173.916 138.498 174.524 139.464 174.821 140.541C175.187 141.566 175.249 142.674 174.999 143.733C174.749 144.791 174.198 145.755 173.412 146.507C171.068 148.897 168.696 151.264 166.229 153.522C165.797 153.88 165.477 154.355 165.308 154.89C165.139 155.425 165.127 155.998 165.275 156.539C165.805 159.432 166.323 162.33 166.829 165.235C167.697 170.233 164.653 173.795 160.077 173.113C159.246 172.959 158.445 172.67 157.706 172.259C154.889 170.814 152.076 169.351 149.305 167.816C148.905 167.561 148.439 167.427 147.965 167.432C147.491 167.437 147.028 167.58 146.633 167.843C143.862 169.379 141.036 170.81 138.237 172.296C135.893 173.54 133.553 173.681 131.367 172.037C129.182 170.392 128.5 168.238 129.096 165.558C129.55 163.631 129.759 161.655 130.109 159.488H128.241H110.39C108.432 159.488 107.21 158.552 107.146 157.007C107.083 155.462 108.314 154.326 110.363 154.322C116.369 154.322 122.38 154.322 128.387 154.322H129.704C127.505 151.918 125.306 149.424 123.007 147.03C121.458 145.421 120.536 143.672 120.931 141.387C121.119 140.085 121.733 138.882 122.678 137.967C123.623 137.052 124.844 136.476 126.151 136.33C129.455 135.875 132.753 135.348 136.065 134.939C138.228 134.676 138.173 132.754 139.109 131.305H37.2092C37.8998 134.176 38.3042 134.544 41.2711 135.003C44.1198 135.457 46.9685 135.912 49.8218 136.321C52.2707 136.689 54.0472 137.947 54.8741 140.305C55.701 142.663 55.1149 144.849 53.3566 146.716C50.9804 149.224 48.6451 151.768 46.3279 154.258C46.5551 154.258 47.0821 154.322 47.6046 154.322H97.2598C99.9858 154.322 101.267 155.167 101.24 156.911C101.213 158.656 99.9359 159.465 97.2098 159.465H48.0681H46.0008C46.3643 161.737 46.6823 163.863 47.0594 165.998C47.3076 167.116 47.2195 168.281 46.8064 169.348C46.3932 170.416 45.6734 171.337 44.7377 171.996C43.8678 172.696 42.8098 173.121 41.6976 173.219C40.5854 173.317 39.4692 173.083 38.4905 172.545C35.4964 171.064 32.5477 169.497 29.6217 167.884C28.5767 167.307 27.7407 167.23 26.6503 167.852C23.9515 169.392 21.1573 170.773 18.4085 172.232C16.1368 173.44 13.8651 173.627 11.6706 172.132C9.47614 170.637 8.76283 168.443 9.17173 165.885C9.66848 162.81 10.2092 159.744 10.7937 156.684C11.0482 155.353 10.8528 154.335 9.76692 153.372C7.81779 151.641 5.94135 149.815 4.16942 147.92C2.99267 146.657 2.04763 145.194 0.989014 143.799L0.998101 140.76ZM61.0577 126.084C59.6947 125.062 58.6633 124.321 57.6683 123.526C47.2457 115.257 41.1484 104.485 39.1629 91.3543C38.8403 89.2325 39.6173 87.8786 41.1439 87.6196C42.8522 87.3334 43.8699 88.2875 44.2652 90.541C47.0549 107.165 56.1054 118.897 71.5576 125.612C72.335 125.929 73.1669 126.091 74.0065 126.089C82.8435 126.121 91.685 126.089 100.522 126.134C102.647 126.201 104.755 125.732 106.651 124.771C122.612 116.625 131.435 103.658 132.167 85.7431C132.712 72.4763 127.624 61.1814 117.982 52.0263C114.765 48.9635 111.06 46.4576 107.019 44.6115C106.989 44.8236 106.979 45.038 106.987 45.2521C107.442 47.9418 106.801 50.2499 104.479 51.8264C102.158 53.403 99.7996 53.035 97.4461 51.7446C94.82 50.2998 92.1257 48.9731 89.5087 47.5147C89.088 47.2379 88.5965 47.0881 88.0929 47.0833C87.5893 47.0784 87.095 47.2188 86.6691 47.4874C83.6976 49.1185 80.7035 50.7269 77.6549 52.2126C76.8585 52.623 75.9791 52.8468 75.0834 52.8672C74.1877 52.8875 73.2991 52.7038 72.4849 52.3299C71.6707 51.9561 70.9522 51.4019 70.3838 50.7094C69.8154 50.0168 69.412 49.204 69.2041 48.3325C68.9315 47.2194 69.1632 45.9836 69.1632 44.6342C68.4726 44.9522 67.9092 45.1794 67.3822 45.4656C59.0431 49.874 52.3433 56.8478 48.2725 65.3568C46.1899 69.7037 44.8098 74.3533 44.1834 79.1325C43.9562 80.759 42.8976 81.6223 41.4301 81.5178C39.9626 81.4133 39.1039 80.3864 39.0993 78.7372C39.083 78.2813 39.1103 77.8248 39.1811 77.3741C42.4297 59.2004 52.3571 46.288 69.2768 38.8231C69.7291 38.6606 70.1143 38.3521 70.3718 37.9462C71.3441 35.6745 71.026 34.3524 69.195 32.5804C68.7971 32.2649 68.4318 31.9102 68.1046 31.5218C67.0641 30.0134 65.9465 30.1588 64.3881 30.8721C41.2166 41.2493 27.4954 64.7161 29.858 90.2729C31.0802 103.762 36.5323 115.325 45.7963 125.117C46.1644 125.507 46.6732 126.025 47.123 126.025C51.6256 126.112 56.1326 126.084 61.0577 126.084ZM14.2604 167.111C14.3149 168.243 15.01 168.188 15.9505 167.693C18.8492 166.162 21.7843 164.694 24.6512 163.1C25.6963 162.468 26.8943 162.134 28.1156 162.134C29.3368 162.134 30.5348 162.468 31.5799 163.1C34.306 164.59 37.0729 166.017 39.8399 167.43C40.3943 167.652 40.9697 167.818 41.5573 167.925C41.6346 167.284 41.8663 166.621 41.7709 166.007C41.3165 163.041 40.7986 160.101 40.2488 157.139C39.749 154.44 40.2488 152.141 42.3706 150.201C44.7604 148.029 47.0185 145.712 49.2993 143.422C49.6219 143.095 49.9854 142.513 49.9036 142.163C49.8218 141.814 49.1585 141.518 48.7405 141.473C45.5056 140.969 42.2615 140.492 39.013 140.074C36.5141 139.751 34.7013 138.574 33.5972 136.257C32.166 133.24 30.6758 130.255 29.1583 127.284C28.8474 126.852 28.4738 126.469 28.0497 126.148C27.6844 126.474 27.3623 126.845 27.091 127.252C25.5826 130.228 24.0924 133.213 22.6521 136.225C22.1898 137.266 21.4613 138.167 20.5401 138.837C19.6188 139.507 18.5373 139.923 17.4044 140.042C14.1604 140.496 10.9164 140.95 7.67695 141.455C7.16463 141.609 6.67442 141.829 6.2185 142.109C6.40835 142.597 6.66526 143.055 6.9818 143.472C9.34439 145.839 11.766 148.147 14.1468 150.496C14.9698 151.241 15.5802 152.192 15.9154 153.25C16.2507 154.309 16.2989 155.438 16.055 156.521C15.3917 159.965 14.8737 163.436 14.2558 167.111H14.2604ZM134.28 166.462C134.184 168.07 134.584 168.329 135.956 167.62C138.869 166.112 141.781 164.599 144.657 163.027C145.656 162.427 146.797 162.106 147.962 162.096C149.126 162.087 150.273 162.389 151.281 162.972C154.171 164.522 157.07 166.053 159.986 167.516C160.487 167.688 161.011 167.784 161.54 167.802C161.669 167.284 161.729 166.75 161.717 166.216C161.227 163.036 160.777 159.828 160.109 156.675C159.541 153.976 160.409 151.927 162.308 150.115C164.689 147.846 167.039 145.548 169.359 143.222C169.641 142.94 169.955 142.4 169.864 142.104C169.752 141.922 169.601 141.767 169.422 141.649C169.243 141.532 169.04 141.457 168.828 141.427C165.648 140.932 162.467 140.414 159.264 140.064C156.538 139.765 154.602 138.551 153.417 136.066C152.054 133.207 150.656 130.366 149.223 127.543C148.864 127.011 148.442 126.526 147.964 126.098C147.548 126.513 147.175 126.97 146.851 127.461C145.388 130.332 143.934 133.208 142.558 136.121C141.458 138.442 139.645 139.637 137.165 139.983C133.921 140.437 130.677 140.891 127.442 141.405C126.987 141.473 126.333 141.75 126.247 142.059C126.161 142.368 126.51 142.995 126.833 143.322C129.068 145.594 131.272 147.865 133.648 149.987C135.874 152 136.424 154.367 135.87 157.211C135.238 160.378 134.775 163.513 134.28 166.462ZM74.211 46.6742C74.1337 47.6056 74.6653 47.9554 75.7875 47.3784C78.7498 45.8518 81.694 44.3116 84.6381 42.7078C86.9099 41.4538 89.1134 41.4083 91.4079 42.6714C94.3338 44.2798 97.3143 45.8018 100.272 47.3284C100.631 47.5147 101.313 47.6874 101.462 47.5192C101.602 47.3325 101.704 47.12 101.762 46.8939C101.819 46.6678 101.832 46.4326 101.799 46.2017C101.299 42.9576 100.808 39.7045 100.168 36.4878C99.6542 33.9162 100.263 31.8126 102.153 30.0089C104.576 27.7008 106.966 25.3579 109.323 22.9802C109.652 22.6291 109.828 22.1618 109.813 21.6808C109.813 21.4627 109.136 21.1946 108.741 21.131C105.67 20.6494 102.598 20.136 99.5133 19.768C96.6328 19.4363 94.5156 18.2141 93.3252 15.4608C92.1348 12.7075 90.7763 10.1677 89.4224 7.55976C89.0177 6.93263 88.5487 6.34943 88.023 5.81963C87.539 6.32664 87.1067 6.88065 86.7327 7.47344C85.2924 10.2995 83.9203 13.1573 82.5209 16.0015C82.1085 16.9406 81.4622 17.7582 80.6437 18.3763C79.8252 18.9943 78.8618 19.3922 77.8457 19.5317C74.4381 20.0497 71.0306 20.554 67.6275 21.1083C67.1288 21.2628 66.6535 21.4844 66.2145 21.7671C66.4102 22.2645 66.6715 22.7336 66.9914 23.1619C69.3147 25.4912 71.6621 27.7962 74.0338 30.077C75.8511 31.8399 76.469 33.9117 75.9874 36.4378C75.3468 39.75 74.8243 43.103 74.211 46.6742Z" fill="#F8FFFF"/>
<path d="M88.0988 140.146C95.2956 140.146 102.488 140.123 109.68 140.178C110.627 140.154 111.562 140.399 112.374 140.886C113.86 141.922 113.492 144.385 111.815 145.094C111.181 145.331 110.507 145.442 109.83 145.421C95.3274 145.439 80.8278 145.439 66.3312 145.421C64.1549 145.421 63.0735 144.694 62.8736 143.185C62.6237 141.336 63.8141 140.132 66.0131 140.123C72.2967 140.123 78.5848 140.123 84.8729 140.123L88.0988 140.146Z" fill="#F8FFFF"/>
<path d="M75.0033 83.267C73.7629 87.5878 72.5817 91.5406 71.5003 95.5343C71.046 97.1972 70.1646 98.2921 68.4108 98.4375C66.9069 98.5602 65.7847 97.5016 65.1849 95.5161C64.0854 91.8814 63.0041 88.2466 61.9137 84.6391C61.8228 84.3438 61.6865 84.0667 61.3957 83.3442C60.5915 87.7196 59.8737 91.636 59.124 95.5524C58.7651 97.5107 57.7019 98.4103 56.0526 98.1695C54.5533 97.9514 53.7219 96.761 54.049 94.8346C55.0758 88.7509 56.198 82.69 57.2839 76.62C57.4747 75.5613 57.6065 74.4891 57.8473 73.4396C58.1971 71.913 59.1104 70.8634 60.7415 70.7907C61.4586 70.7097 62.1803 70.897 62.7675 71.3164C63.3547 71.7359 63.7659 72.3578 63.9219 73.0625C65.1607 77.2364 66.3996 81.4103 67.6384 85.5842C67.7929 86.1021 67.9746 86.611 68.3063 87.5924C68.847 85.775 69.274 84.412 69.6693 83.0217C70.578 79.814 71.4867 76.5972 72.3954 73.3941C72.9179 71.5768 74.1083 70.5772 75.6303 70.7317C77.2841 70.8998 78.2428 71.8584 78.5654 73.5395C79.8875 80.4819 81.2551 87.4197 82.5863 94.3666C82.8407 95.6933 82.8589 96.9927 81.4913 97.8287C79.7785 98.8737 77.9338 97.8878 77.5113 95.6842C76.8207 92.0722 76.1483 88.4556 75.4667 84.8436C75.3986 84.421 75.235 84.0167 75.0033 83.267Z" fill="#F8FFFF"/>
<path d="M109.495 88.6097C109.495 91.0632 109.495 93.2713 109.495 95.4748C109.495 97.2559 108.418 98.4462 106.919 98.4553C105.42 98.4644 104.375 97.2922 104.37 95.4748C104.343 88.1569 104.343 80.8404 104.37 73.5255C104.37 71.74 105.279 70.7404 107.065 70.7086C109.552 70.616 112.042 70.6827 114.52 70.9085C119.277 71.4492 122.462 75.5701 122.144 80.4951C121.863 84.9023 117.955 88.5416 113.416 88.6052C112.158 88.6233 110.922 88.6097 109.495 88.6097ZM109.586 75.9835V83.4529C110.808 83.4529 111.926 83.4529 113.039 83.4529C113.433 83.4262 113.822 83.3515 114.198 83.2303C115.055 83.0158 115.806 82.5015 116.316 81.7805C116.826 81.0595 117.061 80.1795 116.978 79.3002C116.869 78.4268 116.458 77.6191 115.816 77.0173C115.173 76.4156 114.34 76.0579 113.462 76.0062C112.226 75.929 110.981 75.9835 109.586 75.9835Z" fill="#F8FFFF"/>
<path d="M92.2519 88.6554L97.2496 73.7438C97.3769 73.3667 97.4768 72.9805 97.6267 72.617C98.2537 71.095 99.6168 70.4453 101.048 70.9632C101.687 71.2164 102.199 71.7123 102.473 72.3423C102.748 72.9724 102.761 73.6854 102.511 74.3254C100.843 79.4367 99.1352 84.5345 97.4405 89.6322C96.7453 91.7267 96.0229 93.8122 95.3505 95.9112C94.8643 97.4242 93.8739 98.3965 92.2928 98.4101C90.7116 98.4238 89.7212 97.4242 89.2078 95.9385C86.7589 88.828 84.2918 81.7221 81.8565 74.6071C81.2477 72.8306 81.7929 71.4267 83.2195 70.9223C84.7461 70.359 86.0773 71.0814 86.7271 72.9169C88.3445 77.5012 89.9075 82.1037 91.5204 86.6972C91.6976 87.2651 91.9293 87.8239 92.2519 88.6554Z" fill="#F8FFFF"/>
</svg>
