<svg width="164" height="152" viewBox="0 0 164 152" fill="none" xmlns="http://www.w3.org/2000/svg">
<path d="M155.355 151.782H139.656C137.575 151.779 135.58 150.952 134.109 149.48C132.637 148.009 131.809 146.014 131.807 143.932V109.918C131.809 107.837 132.637 105.842 134.109 104.37C135.58 102.899 137.575 102.071 139.656 102.069H155.355C157.436 102.071 159.431 102.899 160.903 104.37C162.374 105.842 163.202 107.837 163.205 109.918V143.932C163.202 146.014 162.374 148.009 160.903 149.48C159.431 150.952 157.436 151.779 155.355 151.782ZM139.656 107.302C138.963 107.303 138.298 107.579 137.807 108.069C137.317 108.56 137.041 109.225 137.04 109.918V143.932C137.041 144.626 137.317 145.291 137.807 145.782C138.298 146.272 138.963 146.548 139.656 146.549H155.355C156.049 146.548 156.714 146.272 157.204 145.782C157.695 145.291 157.971 144.626 157.972 143.932V109.918C157.971 109.225 157.695 108.56 157.204 108.069C156.714 107.579 156.049 107.303 155.355 107.302H139.656Z" fill="#F8FFFF"/>
<path d="M147.506 143.933C148.951 143.933 150.122 142.761 150.122 141.316C150.122 139.871 148.951 138.7 147.506 138.7C146.061 138.7 144.889 139.871 144.889 141.316C144.889 142.761 146.061 143.933 147.506 143.933Z" fill="#F8FFFF"/>
<path d="M144.889 112.534C144.889 113.979 146.061 115.151 147.506 115.151C148.951 115.151 150.122 113.979 150.122 112.534C150.122 111.089 148.951 109.918 147.506 109.918C146.061 109.918 144.889 111.089 144.889 112.534Z" fill="#F8FFFF"/>
<path d="M6.21626 104.685H6.20972L12.9439 136.083L6.21626 104.685ZM12.9439 136.083V136.122C13.2088 136.096 13.477 136.083 13.7484 136.083H12.9439ZM6.21626 104.685H6.20972L12.9439 136.083L6.21626 104.685ZM12.9439 136.083V136.122C13.2088 136.096 13.477 136.083 13.7484 136.083H12.9439Z" fill="#F8FFFF"/>
<path d="M93.2303 136.083H61.2144C61.2141 135.714 61.1747 135.347 61.0967 134.987L54.3658 103.589C54.1106 102.421 53.4649 101.374 52.535 100.622C51.6051 99.8702 50.4466 99.4574 49.2507 99.4521H6.21619C5.43603 99.4521 4.66576 99.6266 3.96175 99.9628C3.25775 100.299 2.63784 100.788 2.14744 101.395C1.65703 102.002 1.30853 102.711 1.12747 103.469C0.946401 104.228 0.937351 105.018 1.10098 105.781L7.82857 137.178C7.91531 137.584 8.05151 137.977 8.23412 138.349C7.12617 139.443 6.36844 140.841 6.0573 142.366C5.74617 143.891 5.89568 145.475 6.48683 146.915C7.07799 148.355 8.08406 149.586 9.37711 150.453C10.6702 151.32 12.1917 151.782 13.7484 151.782H93.2303C95.3121 151.782 97.3086 150.955 98.7807 149.483C100.253 148.011 101.08 146.014 101.08 143.932C101.08 141.85 100.253 139.854 98.7807 138.382C97.3086 136.91 95.3121 136.083 93.2303 136.083H93.2303ZM49.2507 104.685L55.9782 136.083H22.5855L15.8514 104.685H49.2507H49.2507ZM6.20964 104.685H10.6217C10.6218 105.053 10.6613 105.421 10.7395 105.781L17.2315 136.083H13.7484C13.4769 136.083 13.2087 136.096 12.9438 136.122V136.083L6.20964 104.685ZM53.9832 146.549H13.7484C13.0544 146.549 12.3889 146.273 11.8982 145.782C11.4075 145.292 11.1319 144.626 11.1319 143.932C11.1319 143.238 11.4075 142.573 11.8982 142.082C12.3889 141.591 13.0544 141.316 13.7484 141.316H53.9832C54.6771 141.316 55.3426 141.591 55.8333 142.082C56.324 142.573 56.5997 143.238 56.5997 143.932C56.5997 144.626 56.324 145.292 55.8333 145.782C55.3426 146.273 54.6771 146.549 53.9832 146.549H53.9832ZM93.2303 146.549H61.3812C61.9831 144.856 61.9831 143.008 61.3812 141.316H93.2303C93.9242 141.316 94.5898 141.591 95.0804 142.082C95.5711 142.573 95.8468 143.238 95.8468 143.932C95.8468 144.626 95.5711 145.292 95.0804 145.782C94.5898 146.273 93.9242 146.549 93.2303 146.549Z" fill="#F8FFFF"/>
<path d="M120.033 133.466C116.42 133.466 113.492 136.395 113.492 140.007V140.697C113.487 141.97 113.84 143.219 114.509 144.302C115.179 145.385 116.138 146.258 117.279 146.823C117.806 147.087 118.229 147.521 118.479 148.055C118.729 148.589 118.792 149.192 118.656 149.766C118.521 150.34 118.195 150.851 117.733 151.217C117.27 151.583 116.698 151.782 116.108 151.781H108.259C106.814 151.781 105.642 150.61 105.642 149.165V148.077C105.642 147.233 106.326 146.548 107.17 146.548C108.333 146.548 109.092 145.282 108.76 144.167C108.426 143.046 108.256 141.877 108.259 140.697C108.259 136.704 105.021 133.466 101.027 133.466H69.0115C67.5665 133.466 66.395 132.295 66.395 130.85C66.395 129.405 67.5665 128.233 69.0115 128.233H123.957C125.402 128.233 126.574 129.405 126.574 130.85C126.574 132.295 125.402 133.466 123.957 133.466H120.033Z" fill="#F8FFFF"/>
<path d="M150.122 94.219C150.122 95.664 148.951 96.8355 147.506 96.8355V96.8355C146.061 96.8355 144.889 95.664 144.889 94.219V71.3248C144.888 70.4577 144.543 69.6264 143.93 69.0133C143.317 68.4001 142.486 68.0552 141.619 68.0542H63.7787C61.6976 68.0566 59.7024 68.8843 58.2309 70.3559C56.7593 71.8274 55.9316 73.8226 55.9292 75.9037V91.6025C55.9292 93.0476 54.7578 94.219 53.3128 94.219V94.219C51.8677 94.219 50.6963 93.0476 50.6963 91.6025V75.9037C50.7002 72.4352 52.0798 69.1099 54.5324 66.6574C56.9849 64.2048 60.3102 62.8252 63.7787 62.8213H141.619C143.873 62.8238 146.035 63.7205 147.629 65.3147C149.223 66.9089 150.12 69.0703 150.122 71.3248V94.219Z" fill="#F8FFFF"/>
<path d="M123.957 117.768H66.3948C64.9498 117.768 63.7783 118.939 63.7783 120.384C63.7783 121.829 64.9498 123.001 66.3948 123.001H123.957C125.402 123.001 126.574 121.829 126.574 120.384C126.574 118.939 125.402 117.768 123.957 117.768Z" fill="#F8FFFF"/>
<path d="M29.7649 41.8897C29.7644 43.1905 29.8328 44.4902 29.9698 45.7832C30.028 46.3324 29.645 46.8353 29.0976 46.9084L25.892 47.3369C25.3448 47.4101 24.8407 47.0261 24.7807 46.4774C24.7319 46.0319 24.6904 45.5846 24.6561 45.1361C24.6014 44.4222 23.8513 43.9714 23.2311 44.3292C20.0826 46.1458 17.5348 48.865 15.9282 52.1509C14.0998 55.8903 13.5992 60.1407 14.5088 64.2025C15.4184 68.2643 17.684 71.8953 20.9325 74.4978C24.1811 77.1002 28.2189 78.5189 32.3813 78.5203H42.8472C44.2923 78.5203 45.4637 79.6918 45.4637 81.1368C45.4637 82.5819 44.2923 83.7533 42.8472 83.7533H32.3813C26.8091 83.7524 21.4177 81.7759 17.1652 78.175C12.9128 74.5741 10.0748 69.5821 9.15566 64.0862C8.23654 58.5903 9.29582 52.9465 12.1452 48.1579C14.8848 43.5539 19.1086 40.0271 24.1129 38.15C24.4798 38.0124 24.7414 37.6815 24.7849 37.2921C25.9152 27.17 30.6942 17.7969 38.2397 10.9341C45.697 4.15159 55.3395 0.291028 65.3944 0.0392408C65.947 0.0254038 66.3955 0.474553 66.3955 1.02729V4.26017C66.3955 4.81202 65.9482 5.25814 65.3966 5.27376C56.0472 5.53852 47.137 9.36822 40.5055 15.9997C33.6382 22.867 29.7755 32.1779 29.7649 41.8897Z" fill="#F8FFFF"/>
<path d="M149.466 54.6885C149.806 56.0945 148.774 57.4101 147.339 57.5892C145.907 57.7678 144.62 56.7457 144.237 55.355C143.295 51.9345 141.375 48.841 138.686 46.4702C135.34 43.5207 131.034 41.8922 126.574 41.8897C125.806 41.8911 125.039 41.9414 124.278 42.0401C123.907 42.0865 123.53 42.0528 123.173 41.9412C122.816 41.8296 122.487 41.6427 122.208 41.3932C121.93 41.1437 121.708 40.8373 121.558 40.4947C121.407 40.1521 121.332 39.7813 121.338 39.4073L121.341 39.2765C121.343 37.358 120.817 35.476 119.82 33.8364C118.824 32.1967 117.396 30.8627 115.693 29.98C113.989 29.0974 112.076 28.7003 110.162 28.8321C108.248 28.9639 106.407 29.6195 104.841 30.7272C104.512 30.9599 104.133 31.1135 103.735 31.1758C103.336 31.2382 102.929 31.2078 102.545 31.0868C102.16 30.9659 101.808 30.7578 101.517 30.4787C101.226 30.1996 101.004 29.8571 100.867 29.4778C98.2998 22.3921 93.6151 16.2675 87.4484 11.935C81.2817 7.60255 73.9315 5.27183 66.395 5.25907V0.026123C74.4858 0.0408204 82.4 2.39232 89.1862 6.79785C95.9723 11.2034 101.341 17.4754 104.648 24.8597C106.833 23.9169 109.203 23.4829 111.58 23.5904C113.957 23.698 116.279 24.3443 118.37 25.4805C120.46 26.6168 122.266 28.2132 123.649 30.1494C125.032 32.0855 125.957 34.3106 126.355 36.6568H126.574C132.309 36.6611 137.846 38.7563 142.147 42.5499C145.79 45.763 148.335 50.0077 149.466 54.6885Z" fill="#F8FFFF"/>
</svg>
